M48
;Layer_Color=9474304
;FILE_FORMAT=4:4
METRIC,TZ
;TYPE=PLATED
T1F00S00C0.2000
T2F00S00C0.3000
T4F00S00C0.6000
T5F00S00C0.9000
T6F00S00C1.0000
;TYPE=NON_PLATED
T7F00S00C3.2000
%
T01
X103750Y270000
X114750
Y281000
X125750
Y270000
X103750Y281000
T02
X18000Y61750
X38000
X48000Y81750
X58000Y101750
X78000
X88000Y121750
X68000
X48000
X38000Y101750
X18000
X88000Y81750
X78000Y61750
X88000Y41750
X108000
X128000
X138000Y61750
X118000
X128000Y81750
X138000Y101750
X118000
X128000Y121750
X138000Y141750
X118000
X98000
Y21750
X118000
X138000
X78000
X68000Y41750
X148000
X168000
X188000
X208000
X228000
X248000
X268000
X288000
X308000
X328000
X348000
X368000
X388000
X408000
X428000
X448000
X468000
X488000
X508000
X528000
X538000Y61750
X518000
X528000Y81750
X535000Y85000
X528750Y128000
X478000Y141750
X458000
X438000
X418000
X398000
X378000
X358000
X338000
X318000
X298000
X278000
X288000Y121750
X308000
X328000
X348000
X368000
X388000
X408000
Y81750
X428000
X438000Y101750
X449397Y107465
X488000Y81750
X498000Y21750
X518000
X538000
X478000
X458000
X438000
X418000
X398000
X378000
X358000
X338000
X318000
X298000
X278000
X258000
X238000
X218000
X198000
X178000
X158000
X178000Y61750
X198000
X188000Y81750
X168000
X178000Y101750
X198000
X218000
X248000Y81750
X268000
X288000
X308000
X328000
X348000
X368000
X388000
X268000Y121750
X188000
X168000
X148000
X158000Y141750
X178000
X158000Y101750
X545000Y85000
X548000Y41750
X578000Y61750
X618000
X638000
X658000
X668000Y41750
X688000
X698000Y61750
X718000
X738000
X758000
X778000
X798000
X818000
X808000Y81750
X788000
X768000
X748000
X728000
X708000
X718000Y101750
X738000
X758000
X778000
X798000
X818000
X818000Y122000
X818000Y141750
X795764Y142645
X772652Y142795
X758000Y141750
X738000
X748000Y121750
X788000
X784134Y128248
X698000Y101750
X678000
X658000
X638000
X618000
X628000Y121750
X648000
X658000Y141750
X638000
X618000
X579690Y127500
X578000Y101750
X608000Y41750
X628000
X648000
X658000Y21750
X638000
X618000
X698000
X718000
X738000
X758000
X748000Y41750
X728000
X727545Y152219
X720005
X712752Y154278
X708000Y159000
X696250Y174500
Y184500
X686250
Y174500
X679000Y149500
X654982Y161225
X645750Y158500
X645500Y183356
X653635Y181060
X668000Y201750
X664000Y210500
Y220500
X637000Y224000
X630000
X599000Y204000
X590000
X584003Y194997
X575003
X563000Y194000
X568000Y201750
Y161750
X552500Y174500
X601734Y160715
X598000Y261750
Y301750
X578000
X558000
X568000Y321750
X548000
Y281750
X568000
X539750Y234250
X539769Y227080
X658000Y261750
X678000
X698000
X718000
X738000
X758000
X778000
X798000
X818000
X822000Y240000
X808000Y241750
X788000
X768000
X748000
X758000Y221750
X778000
X800007Y217410
X798718Y209981
Y202441
Y194901
X792420Y190756
X784880
X788000Y201750
X768000
X762269Y191206
X754729
X747191Y191049
X739651Y191121
X732112Y191206
X724583Y190806
X728000Y217500
Y225500
X748000Y201750
X748889Y171893
X756427Y171697
X763967Y171694
X771505Y171844
X774927Y165125
Y157585
X774712Y150048
X764700Y154768
X765957Y162203
X793490Y165008
Y157468
X793847Y149937
X795925Y172144
X803450Y172623
X810251Y175878
X815172Y181591
X817230Y188845
X817281Y196385
Y203925
X816302Y228281
X804236Y223652
X808000Y281750
X788000
X768000
X748000
X728000
X708000
X688000
X698000Y301750
X718000
X738000
X758000
X748000Y321750
X728000
X708000
X688000
X668000
X648000
X638000Y301750
X648000Y281750
X608000Y321750
X699000Y209500
X735084Y152094
X808000Y161750
X510290Y174000
X507000Y224500
Y231500
X500000
X493000
X486000
X479000
X472000
X465000
Y224500
X458000
X451000
Y217500
Y210500
Y203500
Y196500
Y189500
X459000
X467000
X458000Y181750
X418000
X398000
X408000Y201750
X428000
X418000Y221750
X398000
X408000Y241750
X428000
X448000
X488000
X508000
X514000Y224500
X532500Y227250
Y234250
X528000Y281750
X508000
X488000
X468000
X448000
X428000
X438000Y301750
X458000
X478000
X498000
X518000
X538000
X528000Y321750
X508000
X488000
X468000
X448000
X428000
X418000Y301750
X373250Y305500
Y297500
Y313500
X328500Y304500
Y297000
Y288500
Y281500
X268000Y281750
X248000
X228000
X208000
X228000Y321750
X248000
X268000
X288000
X278000Y301750
X258000
X268000Y241750
Y201750
X258000Y181750
X238000
X218000
X228000Y201750
X208000
X188000
X218000Y221750
X228000Y241750
Y161750
X268000
X388000
X408000
X428000
X388000Y201750
Y241750
X138000Y192000
X123000
X108000
X106000Y172000
X114000
X98000Y221750
X78000
X58000
X48000Y241750
X58000Y261750
X39625Y266187
X48000Y281750
X28000
X8000
X88000
Y321750
X108000
T04
X564330Y13000
X577030
X589730
X602430
T05
X603800Y335000
X629200
X654600
X680000
X705400
X228150Y294500
X202750
T06
X102500Y73500
X152500
X159350Y327500
X184750
X210150
T07
X30000Y30000
X795000
Y320000
X30000
M30
