G04*
G04 #@! TF.GenerationSoftware,Altium Limited,Altium Designer,20.2.4 (192)*
G04*
G04 Layer_Color=8388736*
%FSLAX44Y44*%
%MOMM*%
G71*
G04*
G04 #@! TF.SameCoordinates,B1776B65-D261-4C44-A5DE-40EC885F2A17*
G04*
G04*
G04 #@! TF.FilePolarity,Negative*
G04*
G01*
G75*
%ADD14O,1.0000X0.6000*%
%ADD15R,2.8032X2.8032*%
%ADD16O,0.4532X1.0532*%
%ADD17O,1.0532X0.4532*%
%ADD18R,1.1032X0.7532*%
%ADD19O,1.0000X0.8000*%
%ADD20R,2.1032X1.9532*%
%ADD21R,1.6532X1.3532*%
%ADD22R,1.6032X0.6032*%
%ADD23R,3.5032X2.6032*%
%ADD24R,1.3061X1.0582*%
%ADD25R,1.4032X0.8032*%
%ADD26O,1.0032X1.6532*%
%ADD27R,0.8032X1.2032*%
%ADD28R,0.8032X1.0532*%
%ADD29R,1.2032X0.8032*%
%ADD30R,1.2532X0.8032*%
%ADD31R,0.8432X0.8032*%
%ADD32R,0.7532X0.7532*%
%ADD33R,0.8432X0.7732*%
%ADD34R,0.7732X0.8432*%
%ADD35R,1.0032X0.8032*%
%ADD36R,0.8032X0.8432*%
%ADD37R,1.2032X1.2532*%
%ADD38R,1.2532X2.4032*%
%ADD39R,0.7532X0.7532*%
%ADD40R,1.6032X2.8532*%
%ADD41R,1.0532X0.8032*%
%ADD42R,1.4032X1.6032*%
%ADD43O,1.8532X0.5032*%
%ADD44O,0.5032X1.8532*%
%ADD45R,0.7532X1.1032*%
%ADD46R,0.8032X1.0032*%
%ADD47R,1.5532X0.5032*%
%ADD48R,1.6032X2.3032*%
%ADD49R,2.7532X1.9032*%
%ADD50R,1.6032X1.4032*%
%ADD51R,1.2032X1.2032*%
%ADD52C,1.2032*%
%ADD53C,1.7032*%
%ADD54R,1.7032X1.7032*%
%ADD55O,2.0532X1.2532*%
%ADD56C,5.2000*%
%ADD57C,2.0032*%
%ADD58R,2.0032X2.0032*%
%ADD59C,2.2032*%
%ADD60C,0.7032*%
D14*
X639554Y176243D02*
D03*
X657000Y189750D02*
D03*
X662800Y167982D02*
D03*
D15*
X691250Y179500D02*
D03*
D16*
X681250Y198500D02*
D03*
X686250D02*
D03*
X691250D02*
D03*
X696250D02*
D03*
X701250D02*
D03*
Y160500D02*
D03*
X696250D02*
D03*
X691250D02*
D03*
X686250D02*
D03*
X681250D02*
D03*
D17*
X710250Y189500D02*
D03*
Y184500D02*
D03*
Y179500D02*
D03*
Y174500D02*
D03*
Y169500D02*
D03*
X672250D02*
D03*
Y174500D02*
D03*
Y179500D02*
D03*
Y184500D02*
D03*
Y189500D02*
D03*
D18*
X590000Y30500D02*
D03*
Y45500D02*
D03*
X575000Y30500D02*
D03*
Y45500D02*
D03*
X76750Y307000D02*
D03*
Y292000D02*
D03*
X298000Y298000D02*
D03*
Y283000D02*
D03*
X341500Y333000D02*
D03*
Y318000D02*
D03*
X494000Y265500D02*
D03*
Y250500D02*
D03*
X707980Y53053D02*
D03*
Y68053D02*
D03*
X77750Y248000D02*
D03*
Y233000D02*
D03*
X676431Y53053D02*
D03*
Y68053D02*
D03*
X304500Y333000D02*
D03*
Y318000D02*
D03*
X498000Y177500D02*
D03*
Y162500D02*
D03*
X571750Y265479D02*
D03*
Y250479D02*
D03*
D19*
X656673Y157211D02*
D03*
D20*
X15000Y165750D02*
D03*
Y188250D02*
D03*
D21*
X37300Y153800D02*
D03*
Y200200D02*
D03*
D22*
X43000Y164000D02*
D03*
Y170500D02*
D03*
Y183500D02*
D03*
Y177000D02*
D03*
Y190000D02*
D03*
D23*
X114750Y275500D02*
D03*
D24*
X90631Y203500D02*
D03*
X75109D02*
D03*
D25*
X94500Y172000D02*
D03*
Y181500D02*
D03*
Y162500D02*
D03*
X71500Y172000D02*
D03*
Y181500D02*
D03*
Y162500D02*
D03*
D26*
X133800Y302750D02*
D03*
X121100D02*
D03*
X108400D02*
D03*
X133800Y248250D02*
D03*
X121100D02*
D03*
X95700Y302750D02*
D03*
X108400Y248250D02*
D03*
X95700D02*
D03*
D27*
X133100Y321000D02*
D03*
X117900D02*
D03*
X483600Y162000D02*
D03*
X468400D02*
D03*
X527400Y99500D02*
D03*
X542600D02*
D03*
X136350Y227500D02*
D03*
X121150D02*
D03*
X483600Y178000D02*
D03*
X468400D02*
D03*
X542600Y115500D02*
D03*
X527400D02*
D03*
D28*
X163750Y225000D02*
D03*
X154250Y203500D02*
D03*
X173250D02*
D03*
X173250Y262250D02*
D03*
X154250D02*
D03*
X163750Y240750D02*
D03*
X173250Y303250D02*
D03*
X154250D02*
D03*
X163750Y281750D02*
D03*
D29*
X322500Y333100D02*
D03*
Y317900D02*
D03*
X514000Y265600D02*
D03*
Y250400D02*
D03*
X534250Y265579D02*
D03*
Y250379D02*
D03*
X462000Y213100D02*
D03*
Y197900D02*
D03*
X512000Y213100D02*
D03*
Y197900D02*
D03*
X607000Y123100D02*
D03*
Y107900D02*
D03*
X646000Y205900D02*
D03*
Y221100D02*
D03*
X552251Y265579D02*
D03*
Y250379D02*
D03*
D30*
X341750Y293000D02*
D03*
Y302500D02*
D03*
Y283500D02*
D03*
X314250Y302500D02*
D03*
Y283500D02*
D03*
D31*
X668000Y146300D02*
D03*
Y136700D02*
D03*
X679000Y221100D02*
D03*
Y211500D02*
D03*
X721000Y125300D02*
D03*
Y115700D02*
D03*
X717950Y221250D02*
D03*
Y211650D02*
D03*
X744950Y161500D02*
D03*
Y151900D02*
D03*
X756201Y161541D02*
D03*
Y151941D02*
D03*
X668000Y125300D02*
D03*
Y115700D02*
D03*
X690000Y221100D02*
D03*
Y211500D02*
D03*
X773700Y191000D02*
D03*
Y181400D02*
D03*
D32*
X703450Y148200D02*
D03*
X693950D02*
D03*
X793700Y181450D02*
D03*
X784200D02*
D03*
D33*
X722950Y181400D02*
D03*
Y171500D02*
D03*
X733700Y171400D02*
D03*
Y161500D02*
D03*
D34*
X743150Y181450D02*
D03*
X733250D02*
D03*
D35*
X708000Y13500D02*
D03*
Y29690D02*
D03*
X676654Y13810D02*
D03*
Y30000D02*
D03*
D36*
X763000Y181450D02*
D03*
X753400D02*
D03*
D37*
X784208Y140055D02*
D03*
D38*
X798958Y124804D02*
D03*
X769458D02*
D03*
D39*
X784200Y181450D02*
D03*
Y171950D02*
D03*
X707200Y221200D02*
D03*
Y211700D02*
D03*
D40*
X387000Y305500D02*
D03*
X360500D02*
D03*
X331250Y255500D02*
D03*
X304750D02*
D03*
D41*
X225272Y64459D02*
D03*
Y83459D02*
D03*
X203772Y73959D02*
D03*
X388750Y268000D02*
D03*
X367250Y258500D02*
D03*
Y277500D02*
D03*
D42*
X495500Y216500D02*
D03*
Y194500D02*
D03*
X478500Y216500D02*
D03*
Y194500D02*
D03*
D43*
X622517Y209503D02*
D03*
Y214503D02*
D03*
Y204503D02*
D03*
Y189503D02*
D03*
Y184503D02*
D03*
Y199503D02*
D03*
Y194503D02*
D03*
Y179503D02*
D03*
Y164503D02*
D03*
Y159503D02*
D03*
Y174503D02*
D03*
Y169503D02*
D03*
X536017Y214503D02*
D03*
Y209503D02*
D03*
Y204503D02*
D03*
Y189503D02*
D03*
Y184503D02*
D03*
Y199503D02*
D03*
Y194503D02*
D03*
Y179503D02*
D03*
Y164503D02*
D03*
Y159503D02*
D03*
Y174503D02*
D03*
Y169503D02*
D03*
D44*
X601767Y230253D02*
D03*
X606767D02*
D03*
X591767D02*
D03*
X596767D02*
D03*
X581767D02*
D03*
X586767D02*
D03*
X576767D02*
D03*
X571767D02*
D03*
X581767Y143753D02*
D03*
X586767D02*
D03*
X571767D02*
D03*
X576767D02*
D03*
X601767D02*
D03*
X606767D02*
D03*
X591767D02*
D03*
X596767D02*
D03*
X561767Y230253D02*
D03*
X556767D02*
D03*
X566767D02*
D03*
X551767D02*
D03*
Y143753D02*
D03*
X556767D02*
D03*
X561767D02*
D03*
X566767D02*
D03*
D45*
X26250Y90500D02*
D03*
X11250D02*
D03*
X27500Y266000D02*
D03*
X12500D02*
D03*
X518500Y74000D02*
D03*
X503500D02*
D03*
D46*
X27750Y117000D02*
D03*
X11560D02*
D03*
X28000Y238000D02*
D03*
X11810D02*
D03*
D47*
X511000Y95500D02*
D03*
Y105500D02*
D03*
X511000Y110500D02*
D03*
X511000Y100500D02*
D03*
X463000D02*
D03*
Y105500D02*
D03*
Y95500D02*
D03*
Y115500D02*
D03*
Y110500D02*
D03*
X511000Y115500D02*
D03*
D48*
X249500Y228000D02*
D03*
Y128000D02*
D03*
X204500Y228000D02*
D03*
Y128000D02*
D03*
D49*
X358750Y199500D02*
D03*
X298250D02*
D03*
D50*
X706000Y133000D02*
D03*
Y116000D02*
D03*
X684000Y133000D02*
D03*
Y116000D02*
D03*
D51*
X564330Y13000D02*
D03*
D52*
X577030D02*
D03*
X589730D02*
D03*
X602430D02*
D03*
D53*
X705400Y335000D02*
D03*
X680000D02*
D03*
X654600D02*
D03*
X629200D02*
D03*
X228150Y294500D02*
D03*
D54*
X603800Y335000D02*
D03*
X202750Y294500D02*
D03*
D55*
X15000Y141250D02*
D03*
Y212750D02*
D03*
D56*
X795000Y30000D02*
D03*
Y320000D02*
D03*
X30000Y30000D02*
D03*
Y320000D02*
D03*
D57*
X210150Y327500D02*
D03*
X184750D02*
D03*
D58*
X159350D02*
D03*
D59*
X102500Y73500D02*
D03*
X152500D02*
D03*
D60*
X125750Y281000D02*
D03*
X114750D02*
D03*
X125750Y270000D02*
D03*
X114750D02*
D03*
X103750D02*
D03*
Y281000D02*
D03*
M02*
