G04*
G04 #@! TF.GenerationSoftware,Altium Limited,Altium Designer,20.2.4 (192)*
G04*
G04 Layer_Color=16711935*
%FSLAX44Y44*%
%MOMM*%
G71*
G04*
G04 #@! TF.SameCoordinates,B1776B65-D261-4C44-A5DE-40EC885F2A17*
G04*
G04*
G04 #@! TF.FilePolarity,Negative*
G04*
G01*
G75*
%ADD51R,1.2032X1.2032*%
%ADD52C,1.2032*%
%ADD53C,1.7032*%
%ADD54R,1.7032X1.7032*%
%ADD55O,2.0532X1.2532*%
%ADD56C,5.2000*%
%ADD57C,2.0032*%
%ADD58R,2.0032X2.0032*%
%ADD59C,2.2032*%
%ADD60C,0.7032*%
D51*
X564330Y13000D02*
D03*
D52*
X577030D02*
D03*
X589730D02*
D03*
X602430D02*
D03*
D53*
X705400Y335000D02*
D03*
X680000D02*
D03*
X654600D02*
D03*
X629200D02*
D03*
X228150Y294500D02*
D03*
D54*
X603800Y335000D02*
D03*
X202750Y294500D02*
D03*
D55*
X15000Y141250D02*
D03*
Y212750D02*
D03*
D56*
X795000Y30000D02*
D03*
Y320000D02*
D03*
X30000Y30000D02*
D03*
Y320000D02*
D03*
D57*
X210150Y327500D02*
D03*
X184750D02*
D03*
D58*
X159350D02*
D03*
D59*
X102500Y73500D02*
D03*
X152500D02*
D03*
D60*
X125750Y281000D02*
D03*
X114750D02*
D03*
X125750Y270000D02*
D03*
X114750D02*
D03*
X103750D02*
D03*
Y281000D02*
D03*
M02*
