G04*
G04 #@! TF.GenerationSoftware,Altium Limited,Altium Designer,20.2.4 (192)*
G04*
G04 Layer_Physical_Order=1*
G04 Layer_Color=255*
%FSLAX44Y44*%
%MOMM*%
G71*
G04*
G04 #@! TF.SameCoordinates,B1776B65-D261-4C44-A5DE-40EC885F2A17*
G04*
G04*
G04 #@! TF.FilePolarity,Positive*
G04*
G01*
G75*
%ADD11C,0.2540*%
%ADD14O,1.0000X0.6000*%
%ADD19O,1.0000X0.8000*%
%ADD24R,1.3061X1.0582*%
%ADD61C,0.5346*%
%ADD62R,4.9000X0.5000*%
%ADD63R,0.5000X5.0000*%
%ADD64R,2.6400X0.5000*%
%ADD65R,4.9000X0.9000*%
%ADD66R,0.5000X2.0000*%
%ADD67R,0.5000X2.7000*%
%ADD68R,3.9400X0.5000*%
%ADD69R,2.6000X2.6000*%
%ADD70O,0.2500X0.8500*%
%ADD71O,0.8500X0.2500*%
%ADD72R,0.9000X0.5500*%
%ADD73R,1.9000X1.7500*%
%ADD74R,1.4500X1.1500*%
%ADD75R,1.4000X0.4000*%
%ADD76R,3.3000X2.4000*%
%ADD77R,1.2000X0.6000*%
%ADD78O,0.8000X1.4500*%
%ADD79R,0.6000X1.0000*%
%ADD80R,0.6000X0.8500*%
%ADD81R,1.0000X0.6000*%
%ADD82R,1.0500X0.6000*%
%ADD83R,0.6400X0.6000*%
%ADD84R,0.5500X0.5500*%
%ADD85R,0.6400X0.5700*%
%ADD86R,0.5700X0.6400*%
%ADD87R,0.8000X0.6000*%
%ADD88R,0.6000X0.6400*%
%ADD89R,1.0000X1.0500*%
%ADD90R,1.0500X2.2000*%
%ADD91R,0.5500X0.5500*%
%ADD92R,1.4000X2.6500*%
%ADD93R,0.8500X0.6000*%
%ADD94R,1.2000X1.4000*%
%ADD95O,1.6500X0.3000*%
%ADD96O,0.3000X1.6500*%
%ADD97R,0.5500X0.9000*%
%ADD98R,0.6000X0.8000*%
%ADD99R,1.3500X0.3000*%
%ADD100R,1.4000X2.1000*%
%ADD101R,2.5500X1.7000*%
%ADD102R,1.4000X1.2000*%
%ADD103C,0.3810*%
%ADD104C,0.5000*%
%ADD105C,0.4000*%
%ADD106C,0.3000*%
%ADD107C,0.5350*%
%ADD108R,1.0000X1.0000*%
%ADD109C,1.0000*%
%ADD110C,1.5000*%
%ADD111R,1.5000X1.5000*%
%ADD112O,1.8500X1.0500*%
%ADD113C,3.2000*%
%ADD114C,1.8000*%
%ADD115R,1.8000X1.8000*%
%ADD116C,2.0000*%
%ADD117C,0.5000*%
%ADD118C,0.6000*%
G36*
X147764Y340252D02*
X147810Y339040D01*
Y325119D01*
X138640D01*
Y328540D01*
X127560D01*
Y313460D01*
X129331D01*
Y310814D01*
X129136Y310664D01*
X128152Y309383D01*
X127471Y309293D01*
X127430D01*
X126748Y309383D01*
X125764Y310664D01*
X124398Y311713D01*
X123246Y312190D01*
X123440Y313460D01*
X123440D01*
Y319730D01*
X117900D01*
X112360D01*
Y313460D01*
X118701D01*
X118954Y312190D01*
X117802Y311713D01*
X116436Y310664D01*
X115452Y309383D01*
X114770Y309293D01*
X114730D01*
X114048Y309383D01*
X113064Y310664D01*
X111698Y311713D01*
X110107Y312372D01*
X109670Y312429D01*
Y302750D01*
Y293071D01*
X110107Y293128D01*
X111698Y293787D01*
X113064Y294836D01*
X114048Y296117D01*
X114730Y296207D01*
X114770D01*
X115452Y296117D01*
X116436Y294836D01*
X117802Y293787D01*
X119393Y293128D01*
X121100Y292904D01*
X122807Y293128D01*
X124398Y293787D01*
X125764Y294836D01*
X126748Y296117D01*
X127430Y296207D01*
X127471D01*
X128152Y296117D01*
X129136Y294836D01*
X130502Y293787D01*
X132093Y293128D01*
X133800Y292904D01*
X135507Y293128D01*
X137098Y293787D01*
X138425Y294805D01*
X138464Y294786D01*
X142003Y291247D01*
X141161Y289987D01*
X140865Y288500D01*
Y266109D01*
X137951Y263195D01*
X116210D01*
X114724Y262899D01*
X113463Y262057D01*
X109375Y257968D01*
X108400Y258096D01*
X106693Y257872D01*
X105102Y257213D01*
X103736Y256164D01*
X102752Y254883D01*
X102071Y254793D01*
X102030D01*
X101348Y254883D01*
X100364Y256164D01*
X98998Y257213D01*
X97407Y257872D01*
X95700Y258096D01*
X93993Y257872D01*
X92402Y257213D01*
X91036Y256164D01*
X89987Y254798D01*
X89328Y253207D01*
X89171Y252010D01*
X84790D01*
Y253290D01*
X75717D01*
X75230Y254463D01*
X79663Y258896D01*
X80556Y260232D01*
X80869Y261808D01*
Y286710D01*
X83790D01*
Y296020D01*
X83790Y297290D01*
X83790Y297290D01*
X83790Y297290D01*
X84037Y298458D01*
X84108Y298631D01*
X89218D01*
X89328Y297793D01*
X89987Y296202D01*
X91036Y294836D01*
X92402Y293787D01*
X93993Y293128D01*
X95700Y292904D01*
X97407Y293128D01*
X98998Y293787D01*
X100364Y294836D01*
X101348Y296117D01*
X102030Y296207D01*
X102071D01*
X102752Y296117D01*
X103736Y294836D01*
X105102Y293787D01*
X106693Y293128D01*
X107130Y293071D01*
Y302750D01*
Y312429D01*
X106693Y312372D01*
X105102Y311713D01*
X103736Y310664D01*
X102752Y309383D01*
X102071Y309293D01*
X102030D01*
X101348Y309383D01*
X100364Y310664D01*
X98998Y311713D01*
X97407Y312372D01*
X95700Y312596D01*
X93993Y312372D01*
X92402Y311713D01*
X91036Y310664D01*
X89987Y309298D01*
X89328Y307707D01*
X89218Y306869D01*
X83790D01*
Y312290D01*
X69710D01*
X69629Y313526D01*
Y336083D01*
X73937Y340391D01*
X147706D01*
X147764Y340252D01*
D02*
G37*
G36*
X412500Y332500D02*
Y323500D01*
X412500Y322500D01*
Y320500D01*
Y260500D01*
X411500Y259500D01*
X383500D01*
X382500Y260500D01*
X382500Y288500D01*
X381500Y289500D01*
X379500D01*
X378500Y290500D01*
Y332500D01*
X381000Y335000D01*
X410000D01*
X412500Y332500D01*
D02*
G37*
G36*
X322500Y275000D02*
X318000Y270500D01*
X318000Y255500D01*
X318000Y188750D01*
X316750Y187500D01*
X282750D01*
X281500Y188750D01*
Y249500D01*
X262750D01*
X261750Y250500D01*
X196750D01*
X182937Y235700D01*
X182750Y235698D01*
Y233500D01*
Y224500D01*
X180750Y222500D01*
X134750D01*
X131750Y225500D01*
Y239500D01*
X129750Y241500D01*
Y254500D01*
X130675Y255425D01*
X137825D01*
X138750Y254500D01*
Y247500D01*
X139750Y246500D01*
X170750D01*
X195750Y271500D01*
X281500D01*
Y286500D01*
X285500Y290500D01*
X322500D01*
Y275000D01*
D02*
G37*
G36*
X769159Y348730D02*
X768261Y347832D01*
X767500Y345994D01*
Y345000D01*
Y297500D01*
Y296505D01*
X768261Y294668D01*
X769668Y293261D01*
X771505Y292500D01*
X820995D01*
X822832Y293261D01*
X824200Y292833D01*
Y260000D01*
Y247750D01*
X815250D01*
Y232140D01*
X824200D01*
Y230053D01*
D01*
Y225779D01*
X823869Y225450D01*
X822930Y225011D01*
X821829Y225467D01*
X820786Y225675D01*
X820389D01*
X820000Y225752D01*
X816200D01*
X816000Y225792D01*
X815740Y225740D01*
X815474Y225757D01*
X812688Y225390D01*
X812189Y225221D01*
X811673Y225118D01*
X809077Y224043D01*
X808639Y223750D01*
X808166Y223517D01*
X805937Y221807D01*
X805589Y221411D01*
X805193Y221063D01*
X803483Y218834D01*
X803250Y218361D01*
X802957Y217924D01*
X801882Y215327D01*
X801779Y214811D01*
X801610Y214312D01*
X801243Y211526D01*
X801260Y211261D01*
X801208Y211000D01*
X801248Y210800D01*
Y190205D01*
X801073Y189328D01*
X800693Y188757D01*
X800123Y188377D01*
X799245Y188202D01*
X796574D01*
X796450Y188227D01*
X790950D01*
X789409Y187920D01*
X788950Y187613D01*
X788491Y187920D01*
X786950Y188227D01*
X781450D01*
X781075Y188152D01*
X779440D01*
Y189730D01*
X773700D01*
X767960D01*
Y189501D01*
X766690Y188539D01*
X766000Y188676D01*
X760000D01*
X758459Y188370D01*
X758200Y188197D01*
X757941Y188370D01*
X756400Y188676D01*
X750400D01*
X748859Y188370D01*
X748607Y188202D01*
X747793D01*
X747541Y188370D01*
X746000Y188676D01*
X740300D01*
X738759Y188370D01*
X738200Y187996D01*
X737641Y188370D01*
X736100Y188676D01*
X730400D01*
X728859Y188370D01*
X728608Y188202D01*
X726525D01*
X726150Y188277D01*
X719750D01*
X718209Y187970D01*
X718089Y187890D01*
X716946Y188653D01*
X717114Y189500D01*
X716820Y190979D01*
D01*
X716569Y191354D01*
D01*
X715983Y192232D01*
X714729Y193070D01*
X714369Y193142D01*
Y196294D01*
X720663Y202587D01*
X721556Y203924D01*
X721593Y204111D01*
X735571D01*
X737538Y204502D01*
X739205Y205616D01*
X742134Y208545D01*
X743248Y210212D01*
X743639Y212179D01*
Y231250D01*
X743248Y233216D01*
X742134Y234884D01*
X738384Y238634D01*
X736717Y239748D01*
X734750Y240139D01*
X648929D01*
X646962Y239748D01*
X645295Y238634D01*
X642366Y235705D01*
X641252Y234038D01*
X640861Y232071D01*
Y230090D01*
X628000Y230090D01*
X627655Y230021D01*
X626385Y230887D01*
Y240601D01*
X682747Y296963D01*
X683589Y298223D01*
X683885Y299710D01*
Y325742D01*
X685063Y326230D01*
X687161Y327839D01*
X688770Y329937D01*
X689782Y332379D01*
X690127Y335000D01*
X689782Y337621D01*
X688770Y340063D01*
X687161Y342161D01*
X685063Y343770D01*
X682621Y344782D01*
X680000Y345127D01*
X677379Y344782D01*
X674937Y343770D01*
X672839Y342161D01*
X671230Y340063D01*
X670218Y337621D01*
X669873Y335000D01*
X670218Y332379D01*
X671230Y329937D01*
X672839Y327839D01*
X674937Y326230D01*
X676115Y325742D01*
Y301319D01*
X619753Y244957D01*
X618911Y243697D01*
X618615Y242210D01*
Y228609D01*
X616365Y226359D01*
X615192Y226845D01*
Y257198D01*
X657747Y299753D01*
X658589Y301013D01*
X658885Y302500D01*
Y325908D01*
X659663Y326230D01*
X661761Y327839D01*
X663370Y329937D01*
X664382Y332379D01*
X664727Y335000D01*
X664382Y337621D01*
X663370Y340063D01*
X661761Y342161D01*
X659663Y343770D01*
X657221Y344782D01*
X654600Y345127D01*
X651979Y344782D01*
X649537Y343770D01*
X647439Y342161D01*
X645830Y340063D01*
X644818Y337621D01*
X644473Y335000D01*
X644818Y332379D01*
X645830Y329937D01*
X647439Y327839D01*
X649537Y326230D01*
X651115Y325576D01*
Y304109D01*
X611825Y264819D01*
X610652Y265305D01*
Y287658D01*
X632747Y309753D01*
X633589Y311013D01*
X633885Y312500D01*
Y326073D01*
X634263Y326230D01*
X636361Y327839D01*
X637970Y329937D01*
X638982Y332379D01*
X639327Y335000D01*
X638982Y337621D01*
X637970Y340063D01*
X636361Y342161D01*
X634263Y343770D01*
X631821Y344782D01*
X629200Y345127D01*
X626579Y344782D01*
X624137Y343770D01*
X622039Y342161D01*
X620430Y340063D01*
X619418Y337621D01*
X619073Y335000D01*
X619418Y332379D01*
X620430Y329937D01*
X622039Y327839D01*
X624137Y326230D01*
X626115Y325410D01*
Y314109D01*
X604020Y292014D01*
X603178Y290754D01*
X602882Y289267D01*
Y241902D01*
X601901Y241096D01*
X601767Y241123D01*
X600191Y240809D01*
X599267Y240192D01*
X598343Y240809D01*
X596767Y241123D01*
X595191Y240809D01*
X594267Y240192D01*
X593343Y240809D01*
X591767Y241123D01*
X590191Y240809D01*
X589267Y240192D01*
X588343Y240809D01*
X586767Y241123D01*
X585191Y240809D01*
X584267Y240192D01*
X583343Y240809D01*
X581767Y241123D01*
X580191Y240809D01*
X579267Y240192D01*
X578343Y240809D01*
X576767Y241123D01*
X576633Y241096D01*
X575652Y241902D01*
Y245189D01*
X578791D01*
Y252361D01*
X585000D01*
X586967Y252752D01*
X588634Y253866D01*
X593634Y258866D01*
X594748Y260534D01*
X595139Y262500D01*
Y319071D01*
X601027Y324960D01*
X613840D01*
Y345040D01*
X593760D01*
Y332227D01*
X586366Y324834D01*
X585252Y323167D01*
X584861Y321200D01*
Y264629D01*
X582872Y262639D01*
X578791D01*
Y264209D01*
X571750D01*
X564711D01*
Y262639D01*
X559790D01*
Y264309D01*
X544711D01*
Y262590D01*
X541791D01*
Y264309D01*
X526711D01*
Y263139D01*
X521540D01*
Y264330D01*
X506460D01*
Y263139D01*
X503629D01*
X501040Y265727D01*
Y270790D01*
X494137D01*
X494000Y270817D01*
X415090D01*
Y302754D01*
X415139Y303000D01*
X415090Y303246D01*
Y322500D01*
X415090Y323500D01*
Y332500D01*
X414893Y333491D01*
X414331Y334331D01*
X411831Y336831D01*
X410991Y337393D01*
X410000Y337590D01*
X384197D01*
X384000Y337629D01*
X384000Y337629D01*
X348540D01*
Y338290D01*
X334460D01*
Y337679D01*
X330040D01*
Y338640D01*
X327379D01*
Y340500D01*
X327379Y340500D01*
X327027Y342271D01*
X326023Y343773D01*
X326023Y343773D01*
X321503Y348293D01*
X320849Y348730D01*
X321235Y350000D01*
X768633D01*
X769159Y348730D01*
D02*
G37*
G36*
X701000Y212250D02*
X701500Y209500D01*
X700500Y207500D01*
X698250Y207250D01*
X696750Y208500D01*
X693000Y208500D01*
Y214500D01*
X694000Y215500D01*
X695750Y215500D01*
X696000Y215750D01*
X696000Y216666D01*
Y230500D01*
X698000D01*
X699000Y231500D01*
X701000D01*
Y212250D01*
D02*
G37*
G36*
X733361Y229121D02*
Y214389D01*
X723690D01*
Y216810D01*
Y217190D01*
X712210D01*
Y216990D01*
X703590D01*
Y227504D01*
X703639Y227750D01*
Y229861D01*
X732622D01*
X733361Y229121D01*
D02*
G37*
G36*
X559000Y256500D02*
Y247500D01*
X557000Y245500D01*
X553000D01*
Y238638D01*
X552961Y238580D01*
X552648Y237003D01*
Y223503D01*
X552961Y221927D01*
X553000Y221869D01*
Y219500D01*
X547000Y213500D01*
X543383D01*
X542767Y213623D01*
X529267D01*
X529155Y213600D01*
X527885Y214399D01*
Y216385D01*
X529000Y217500D01*
Y245500D01*
X527000Y247500D01*
Y256500D01*
X529333Y260000D01*
X556667D01*
X559000Y256500D01*
D02*
G37*
G36*
X650750Y227500D02*
X652000Y226250D01*
Y218500D01*
X650250Y216750D01*
X639500D01*
X636138Y213388D01*
X630446D01*
X629267Y213623D01*
X629181D01*
X626750Y215750D01*
Y226250D01*
X628000Y227500D01*
X650750Y227500D01*
D02*
G37*
G36*
X693361Y227750D02*
X693410Y227504D01*
Y217973D01*
X693123Y217915D01*
D01*
X693009Y217893D01*
X693009Y217893D01*
X693009Y217893D01*
X692587Y217611D01*
X692169Y217331D01*
X692169Y217331D01*
X692169Y217331D01*
X691878Y217040D01*
X673260D01*
Y205960D01*
X677806D01*
X678189Y205493D01*
X678518Y204232D01*
X677680Y202979D01*
X677386Y201500D01*
Y199770D01*
X681250D01*
Y197230D01*
X677386D01*
Y195500D01*
X677008Y195040D01*
X675710D01*
Y193742D01*
X675250Y193364D01*
X673880D01*
X668747Y198497D01*
X667487Y199339D01*
X666000Y199635D01*
X647326D01*
X645839Y199339D01*
X644579Y198497D01*
X636638Y190557D01*
X636638Y190556D01*
X634456Y188375D01*
X633286Y189000D01*
X633386Y189503D01*
X633073Y191080D01*
X632455Y192003D01*
X633073Y192927D01*
X633386Y194503D01*
X633073Y196080D01*
X632455Y197003D01*
X633073Y197927D01*
X633386Y199503D01*
X633073Y201080D01*
X632455Y202003D01*
X633073Y202927D01*
X633386Y204503D01*
X633073Y206080D01*
X632455Y207003D01*
X633073Y207927D01*
X633134Y208233D01*
X630957D01*
X630844Y208309D01*
X629267Y208623D01*
X622517D01*
Y210384D01*
X629267D01*
X630844Y210697D01*
X630957Y210773D01*
X634109D01*
X634129Y210798D01*
X636138D01*
X637129Y210995D01*
X637969Y211557D01*
X640573Y214160D01*
X650250D01*
X651241Y214357D01*
X652081Y214919D01*
X652722Y215560D01*
X653540D01*
Y216378D01*
X653831Y216669D01*
X654393Y217509D01*
X654590Y218500D01*
Y226250D01*
X654393Y227241D01*
X653831Y228081D01*
X653321Y228591D01*
X653847Y229861D01*
X693361D01*
Y227750D01*
D02*
G37*
G36*
X557647Y223503D02*
X557961Y221927D01*
X558037Y221813D01*
Y219637D01*
X558343Y219698D01*
X559267Y220315D01*
X560191Y219698D01*
X561767Y219384D01*
X563343Y219698D01*
X564267Y220315D01*
X565191Y219698D01*
X566767Y219384D01*
X568343Y219698D01*
X569267Y220315D01*
X570191Y219698D01*
X571767Y219384D01*
X571901Y219411D01*
X572882Y218605D01*
Y199641D01*
X571370Y198630D01*
X570256Y196963D01*
X569865Y194997D01*
X570256Y193030D01*
X571370Y191363D01*
X573037Y190249D01*
X575003Y189858D01*
X576970Y190249D01*
X578637Y191363D01*
X578868Y191709D01*
X580138D01*
X580370Y191363D01*
X582037Y190249D01*
X584003Y189858D01*
X585970Y190249D01*
X587637Y191363D01*
X588751Y193030D01*
X589142Y194997D01*
X588751Y196963D01*
X587637Y198630D01*
X585970Y199744D01*
X585652Y199807D01*
Y218605D01*
X586633Y219411D01*
X586767Y219384D01*
X588343Y219698D01*
X589267Y220315D01*
X590191Y219698D01*
X591767Y219384D01*
X593343Y219698D01*
X594267Y220315D01*
X595191Y219698D01*
X596767Y219384D01*
X598343Y219698D01*
X599267Y220315D01*
X600191Y219698D01*
X601767Y219384D01*
X602455Y219521D01*
X603351Y218804D01*
X603572Y218449D01*
Y192816D01*
X599144Y188388D01*
X547665D01*
X546860Y189370D01*
X546886Y189503D01*
X546573Y191080D01*
X545955Y192003D01*
X546573Y192927D01*
X546886Y194503D01*
X546573Y196080D01*
X545955Y197003D01*
X546573Y197927D01*
X546886Y199503D01*
X546573Y201080D01*
X545955Y202003D01*
X546573Y202927D01*
X546886Y204503D01*
X546573Y206080D01*
X545955Y207003D01*
X546573Y207927D01*
X546886Y209503D01*
X546838Y209746D01*
X547867Y211083D01*
X547991Y211107D01*
X548831Y211669D01*
X554831Y217669D01*
X555393Y218509D01*
X555497Y218575D01*
Y219031D01*
X555590Y219500D01*
Y221869D01*
X555576Y221941D01*
X555887Y223503D01*
Y230253D01*
X557647D01*
Y223503D01*
D02*
G37*
G36*
X373500Y286500D02*
X373500Y265500D01*
X372500Y264500D01*
X361500D01*
X361040Y264040D01*
X360460D01*
Y252960D01*
X360500D01*
Y252500D01*
X361500Y251500D01*
X374750D01*
X375750Y250250D01*
Y188766D01*
X374750Y187500D01*
X344766D01*
X343500Y188766D01*
Y277500D01*
X342500Y278500D01*
X336500D01*
X335500Y279500D01*
X335500Y286277D01*
X336683Y287460D01*
X349540D01*
Y287500D01*
X372500Y287500D01*
X373500Y286500D01*
D02*
G37*
G36*
X719950Y178650D02*
X713200D01*
Y180650D01*
X716450D01*
X719950Y184150D01*
Y178650D01*
D02*
G37*
G36*
X600753Y180619D02*
X607593Y175315D01*
X607652Y174069D01*
Y155349D01*
X606767Y154623D01*
X605191Y154309D01*
X604267Y153692D01*
X603343Y154309D01*
X603037Y154370D01*
Y152194D01*
X602961Y152080D01*
X602647Y150503D01*
Y143753D01*
X600887D01*
Y150503D01*
X600573Y152080D01*
X600497Y152194D01*
Y154370D01*
X600191Y154309D01*
X599267Y153692D01*
X598343Y154309D01*
X596767Y154623D01*
X595191Y154309D01*
X594267Y153692D01*
X593343Y154309D01*
X591767Y154623D01*
X590191Y154309D01*
X589267Y153692D01*
X588343Y154309D01*
X586767Y154623D01*
X585191Y154309D01*
X584267Y153692D01*
X583343Y154309D01*
X581767Y154623D01*
X580191Y154309D01*
X579267Y153692D01*
X578343Y154309D01*
X576767Y154623D01*
X575191Y154309D01*
X574267Y153692D01*
X573343Y154309D01*
X571767Y154623D01*
X570191Y154309D01*
X569267Y153692D01*
X568343Y154309D01*
X566767Y154623D01*
X565191Y154309D01*
X564267Y153692D01*
X563343Y154309D01*
X561767Y154623D01*
X560191Y154309D01*
X559267Y153692D01*
X558343Y154309D01*
X556767Y154623D01*
X555191Y154309D01*
X554267Y153692D01*
X553343Y154309D01*
X551767Y154623D01*
X550899Y154450D01*
X550137Y154363D01*
X546573Y157927D01*
X546886Y159503D01*
X546573Y161080D01*
X545955Y162003D01*
X546573Y162927D01*
X546886Y164503D01*
X546573Y166080D01*
X545955Y167003D01*
X546573Y167927D01*
X546886Y169503D01*
X547609Y170384D01*
X549588D01*
X550533Y169752D01*
X552500Y169361D01*
X554467Y169752D01*
X556134Y170866D01*
X557248Y172533D01*
X557639Y174500D01*
X557248Y176467D01*
X556134Y178134D01*
X554467Y179248D01*
X553958Y179349D01*
X554083Y180619D01*
X600753D01*
D02*
G37*
G36*
X720250Y174000D02*
Y168750D01*
X720000Y168750D01*
X715250Y173500D01*
X713000Y173500D01*
X713000Y175500D01*
X718500D01*
X720250Y174000D01*
D02*
G37*
G36*
X201385Y168205D02*
X200899Y167032D01*
X194237D01*
Y170059D01*
X193892Y171793D01*
X192909Y173264D01*
X191439Y174246D01*
X189705Y174591D01*
X180815D01*
X179080Y174246D01*
X177610Y173264D01*
X177133Y172550D01*
X175606D01*
X175129Y173264D01*
X173659Y174246D01*
X171925Y174591D01*
X163035D01*
X161300Y174246D01*
X159830Y173264D01*
X158848Y171793D01*
X158503Y170059D01*
Y167032D01*
X103040D01*
Y170730D01*
X94500D01*
Y173270D01*
X103040D01*
Y176968D01*
X192623D01*
X201385Y168205D01*
D02*
G37*
G36*
X717250Y166500D02*
X713500Y162750D01*
X708000Y168250D01*
X709250Y169500D01*
X714074D01*
X717250Y166500D01*
D02*
G37*
G36*
X316175Y339910D02*
X315545Y338640D01*
X314960D01*
Y327560D01*
X330040D01*
Y328421D01*
X334460D01*
Y327710D01*
X348540D01*
Y328371D01*
X375910D01*
Y290500D01*
X376107Y289509D01*
X376669Y288669D01*
X377669Y287669D01*
X378509Y287107D01*
X379500Y286910D01*
X379910D01*
X379910Y260500D01*
X380107Y259509D01*
X380669Y258669D01*
X381669Y257669D01*
X382509Y257107D01*
X383500Y256910D01*
X411500D01*
X412491Y257107D01*
X413331Y257669D01*
X414331Y258669D01*
X414893Y259509D01*
X415027Y260183D01*
X492050D01*
X495270Y256963D01*
X494784Y255790D01*
X486960D01*
Y254385D01*
X468000D01*
X466513Y254089D01*
X465253Y253247D01*
X440253Y228247D01*
X439411Y226987D01*
X439115Y225500D01*
Y161609D01*
X433391Y155885D01*
X261609D01*
X253385Y164109D01*
Y214960D01*
X259040D01*
Y241040D01*
X239960D01*
Y214960D01*
X245615D01*
Y162500D01*
X245911Y161013D01*
X246753Y159753D01*
X257253Y149253D01*
X258513Y148411D01*
X260000Y148115D01*
X435000D01*
X436487Y148411D01*
X437747Y149253D01*
X445747Y157253D01*
X446589Y158513D01*
X446885Y160000D01*
Y223891D01*
X469609Y246615D01*
X486960D01*
Y245210D01*
X501040D01*
Y246615D01*
X506460D01*
Y244860D01*
X514046D01*
X520115Y238791D01*
Y219672D01*
X519540Y218640D01*
X513270D01*
Y213100D01*
X510730D01*
Y218640D01*
X504460D01*
X504040Y219736D01*
Y226040D01*
X469960D01*
Y219736D01*
X469540Y218640D01*
X454460D01*
Y207560D01*
Y203440D01*
Y199170D01*
X462000D01*
Y197900D01*
X463270D01*
Y192360D01*
X469540D01*
X469960Y191264D01*
Y185540D01*
X469670D01*
Y179270D01*
X473940D01*
Y184960D01*
X478060D01*
Y170460D01*
X478060D01*
Y169540D01*
X478060D01*
Y154460D01*
X489140D01*
Y158615D01*
X490960D01*
Y157210D01*
X503920D01*
X504446Y155940D01*
X477253Y128747D01*
X476411Y127487D01*
X476115Y126000D01*
Y124953D01*
X474942Y124467D01*
X474205Y125205D01*
X472734Y126187D01*
X471000Y126532D01*
X461000D01*
X460246Y126382D01*
X434870D01*
X433135Y126037D01*
X431665Y125055D01*
X431665Y125055D01*
X419142Y112532D01*
X238877D01*
X236532Y114877D01*
Y143980D01*
X236532Y143980D01*
X236187Y145715D01*
X235205Y147185D01*
X233408Y148981D01*
X233369Y149041D01*
X233368Y149041D01*
X203519Y178890D01*
X197705Y184705D01*
X196234Y185687D01*
X194500Y186032D01*
X103040D01*
Y187040D01*
X87119D01*
Y190294D01*
X92494Y195669D01*
X99701D01*
Y198361D01*
X148710D01*
Y196710D01*
X159790D01*
Y210290D01*
X148710D01*
Y208639D01*
X99701D01*
Y211331D01*
X66039D01*
Y208129D01*
X63500D01*
X61729Y207777D01*
X60227Y206773D01*
X60227Y206773D01*
X48360Y194906D01*
X47090Y195299D01*
Y208490D01*
X27510D01*
Y200615D01*
X27040Y199540D01*
X26240Y199540D01*
X2960D01*
Y176960D01*
Y154460D01*
X26240D01*
X27040Y154460D01*
X27510Y153385D01*
Y145510D01*
X47090D01*
Y162090D01*
X33998D01*
X33945Y165054D01*
X34835Y165960D01*
X52540D01*
Y169783D01*
X53713Y170269D01*
X59390Y164593D01*
X59390Y164592D01*
X61092Y162890D01*
X61092Y162890D01*
X62960Y161022D01*
Y156960D01*
X80040D01*
Y167889D01*
X81576Y168194D01*
X82913Y169087D01*
X84690Y170865D01*
X85960Y170339D01*
Y156960D01*
X103040D01*
Y157968D01*
X163035D01*
X164769Y158313D01*
X166239Y159295D01*
X166557Y159771D01*
X166722Y159819D01*
X168026Y159684D01*
X168720Y158645D01*
X170190Y157663D01*
X171925Y157318D01*
X180815D01*
X182549Y157663D01*
X184019Y158645D01*
X184713Y159684D01*
X186017Y159819D01*
X186182Y159771D01*
X186500Y159295D01*
X187970Y158313D01*
X189705Y157968D01*
X202623D01*
X221118Y139473D01*
Y110370D01*
X221463Y108635D01*
X222445Y107165D01*
X231165Y98445D01*
X231165Y98445D01*
X232635Y97463D01*
X234370Y97118D01*
X423650D01*
X425384Y97463D01*
X426855Y98445D01*
X439377Y110968D01*
X453710D01*
Y104385D01*
X448500D01*
X447013Y104089D01*
X445753Y103247D01*
X443253Y100747D01*
X442411Y99487D01*
X442115Y98000D01*
Y90000D01*
X442411Y88513D01*
X443253Y87253D01*
X446213Y84293D01*
X447473Y83451D01*
X448960Y83155D01*
X477961D01*
X479447Y83451D01*
X480707Y84293D01*
X487747Y91333D01*
X488589Y92593D01*
X488885Y94080D01*
Y103212D01*
X490058Y103698D01*
X491003Y102753D01*
X492263Y101911D01*
X493750Y101615D01*
X501710D01*
Y91460D01*
X507115D01*
Y81040D01*
X498210D01*
Y78119D01*
X237687D01*
X232062Y83744D01*
Y88999D01*
X218482D01*
Y77919D01*
X226236D01*
X233068Y71087D01*
X234404Y70194D01*
X235981Y69881D01*
X242664D01*
X243032Y69173D01*
X243117Y68611D01*
X233266Y58759D01*
X232062Y59352D01*
X232062Y60010D01*
Y63189D01*
X226542D01*
Y58919D01*
X230880D01*
X231629Y58919D01*
X232221Y57715D01*
X230391Y55885D01*
X70609D01*
X65885Y60609D01*
Y84000D01*
X65589Y85487D01*
X64747Y86747D01*
X57747Y93747D01*
X56487Y94589D01*
X55000Y94885D01*
X31540D01*
Y97540D01*
X20960D01*
Y83460D01*
X31540D01*
Y87115D01*
X53391D01*
X58115Y82391D01*
Y59000D01*
X58411Y57514D01*
X59253Y56253D01*
X66253Y49253D01*
X67514Y48411D01*
X69000Y48115D01*
X232000D01*
X233487Y48411D01*
X234747Y49253D01*
X247609Y62115D01*
X511000D01*
X512487Y62411D01*
X513747Y63253D01*
X514589Y64513D01*
X514885Y66000D01*
Y66960D01*
X523790D01*
Y70115D01*
X551000D01*
X552487Y70411D01*
X553747Y71253D01*
X558818Y76324D01*
X558854Y76320D01*
X564087Y71087D01*
X565424Y70194D01*
X567000Y69881D01*
X667027D01*
X669391Y67517D01*
Y62762D01*
X683471D01*
Y73342D01*
X676075D01*
X675896Y73611D01*
X676574Y74881D01*
X693576D01*
X700940Y67517D01*
Y62762D01*
X715020D01*
Y73342D01*
X706765D01*
X698195Y81913D01*
X696859Y82806D01*
X695282Y83119D01*
X572706D01*
X570886Y84939D01*
Y132161D01*
X571767Y132884D01*
X573343Y133198D01*
X574267Y133815D01*
X575191Y133198D01*
X576477Y132942D01*
X576834Y131993D01*
X576859Y131670D01*
X576056Y131134D01*
X574942Y129466D01*
X574551Y127500D01*
X574942Y125534D01*
X576056Y123866D01*
X577724Y122752D01*
X579690Y122361D01*
X599460D01*
Y117560D01*
X614540D01*
Y128640D01*
X610885D01*
Y136646D01*
X610850Y136821D01*
X610886Y137003D01*
Y147498D01*
X612060Y147984D01*
X612790Y147253D01*
X614050Y146411D01*
X615537Y146115D01*
X661000D01*
X661278Y146171D01*
X662260Y145365D01*
Y140760D01*
Y137970D01*
X668000D01*
Y135430D01*
X662260D01*
Y131160D01*
X662260D01*
X662260Y130840D01*
X662260D01*
Y126570D01*
X668000D01*
Y124030D01*
X662260D01*
Y119760D01*
Y110160D01*
X673740D01*
X674460Y109188D01*
Y107460D01*
X693540D01*
Y120046D01*
X695287Y121793D01*
X696460Y121307D01*
Y117270D01*
X706000D01*
Y116000D01*
X707270D01*
Y107460D01*
X715540D01*
Y110160D01*
X719730D01*
Y115700D01*
X721000D01*
Y116970D01*
X726740D01*
Y119760D01*
Y130840D01*
X724817D01*
X724589Y131987D01*
X723747Y133247D01*
X721247Y135747D01*
X719987Y136589D01*
X718500Y136885D01*
X715540D01*
Y141540D01*
X707335D01*
Y142910D01*
X708740D01*
Y153490D01*
X706402D01*
X706197Y153797D01*
X705135Y154859D01*
Y158205D01*
Y160500D01*
X705114Y160603D01*
Y163500D01*
X705381Y163825D01*
X706689Y163866D01*
X710016Y160540D01*
X710226Y160226D01*
X713726Y156726D01*
X714055Y156505D01*
X714336Y156225D01*
X715220Y155634D01*
X716672Y155033D01*
X717714Y154825D01*
X718111D01*
X718500Y154748D01*
X729874D01*
X730500Y154623D01*
X736900D01*
X737629Y154768D01*
X739210D01*
Y153170D01*
X744950D01*
Y151900D01*
X746220D01*
Y146360D01*
X750690D01*
Y146401D01*
X754931D01*
Y151941D01*
X756201D01*
Y153211D01*
X761941D01*
Y155488D01*
D01*
D01*
X762248Y155694D01*
X763121Y157000D01*
X763428Y158541D01*
Y164541D01*
X763121Y166082D01*
X762248Y167388D01*
X760942Y168261D01*
X759401Y168568D01*
X753001D01*
X751518Y168272D01*
X749428D01*
X748150Y168526D01*
X742128D01*
X741745Y168534D01*
X740927Y169658D01*
Y174223D01*
X746000D01*
X747541Y174530D01*
X747793Y174698D01*
X748607D01*
X748859Y174530D01*
X750400Y174223D01*
X756400D01*
X757941Y174530D01*
X758200Y174703D01*
X758459Y174530D01*
X760000Y174223D01*
X766000D01*
X767541Y174530D01*
X767718Y174648D01*
X769119D01*
X770500Y174373D01*
X776900D01*
X777423Y173944D01*
Y169200D01*
X777456Y169036D01*
Y148883D01*
X776361Y148152D01*
X775488Y146845D01*
X775182Y145304D01*
Y138344D01*
X770728D01*
Y126074D01*
X777248D01*
Y129953D01*
X778518Y130915D01*
X779208Y130778D01*
X789208D01*
X789898Y130915D01*
X791168Y129953D01*
Y126074D01*
X797688D01*
Y138344D01*
X793235D01*
Y145304D01*
X792928Y146845D01*
X792055Y148152D01*
X790960Y148883D01*
Y169116D01*
X790977Y169200D01*
Y174673D01*
X796450D01*
X796574Y174698D01*
X799226D01*
X799450Y174653D01*
X799710Y174705D01*
X799976Y174688D01*
X802905Y175074D01*
X803404Y175243D01*
X803921Y175346D01*
X806651Y176477D01*
X807089Y176769D01*
X807561Y177002D01*
X809906Y178801D01*
X810253Y179197D01*
X810649Y179544D01*
X812448Y181889D01*
X812681Y182361D01*
X812973Y182799D01*
X814104Y185529D01*
X814207Y186046D01*
X814376Y186545D01*
X814762Y189474D01*
X814745Y189739D01*
X814796Y190000D01*
X814752Y190224D01*
Y210740D01*
X814895Y211458D01*
X815154Y211846D01*
X815542Y212105D01*
X816260Y212248D01*
X820000D01*
X820389Y212325D01*
X820786D01*
X821829Y212533D01*
X822930Y212989D01*
X823869Y212549D01*
X824200Y212221D01*
D01*
D01*
Y109200D01*
X822000Y107000D01*
X822000Y98000D01*
X824200Y95800D01*
Y90200D01*
X823000Y89000D01*
Y58044D01*
X821730Y57195D01*
X820994Y57500D01*
X771505D01*
X769668Y56739D01*
X768261Y55332D01*
X767500Y53495D01*
Y52500D01*
Y5000D01*
Y4005D01*
X768261Y2168D01*
X769159Y1270D01*
X768633Y-0D01*
X56367D01*
X55841Y1270D01*
X56739Y2168D01*
X57500Y4005D01*
Y5000D01*
Y52500D01*
Y53495D01*
X56739Y55332D01*
X55332Y56739D01*
X53495Y57500D01*
X4005D01*
X2168Y56739D01*
X1270Y55841D01*
X-0Y56367D01*
X0Y293633D01*
X1270Y294159D01*
X2168Y293261D01*
X4005Y292500D01*
X53495D01*
X55332Y293261D01*
X56601Y294530D01*
X56739Y294668D01*
X57119Y295587D01*
X57119Y295586D01*
Y295587D01*
X59198Y297665D01*
X60371Y297179D01*
Y281542D01*
X49645Y270816D01*
X41769D01*
X41592Y270935D01*
X39625Y271326D01*
X37659Y270935D01*
X37481Y270816D01*
X32790D01*
Y273040D01*
X22210D01*
Y258960D01*
X32790D01*
Y261558D01*
X37481D01*
X37659Y261440D01*
X39625Y261049D01*
X41592Y261440D01*
X41769Y261558D01*
X51562D01*
X51562Y261558D01*
X53334Y261911D01*
X54836Y262914D01*
X68273Y276352D01*
X69277Y277854D01*
X69629Y279625D01*
X69629Y279625D01*
Y285474D01*
X69710Y286710D01*
X72631D01*
Y263514D01*
X66297Y257181D01*
X65405Y255844D01*
X65091Y254268D01*
Y243577D01*
X65405Y242000D01*
X66297Y240664D01*
X70084Y236877D01*
X70710Y236459D01*
Y234270D01*
X77750D01*
X85502D01*
X85963Y234461D01*
X86377Y234047D01*
X87714Y233154D01*
X89290Y232841D01*
X115610D01*
Y228770D01*
X121150D01*
X126690D01*
Y232841D01*
X129160D01*
Y225500D01*
X129357Y224509D01*
X129919Y223669D01*
X130810Y222778D01*
Y219960D01*
X134500D01*
X134750Y219910D01*
X158210D01*
Y218210D01*
X169290D01*
Y219910D01*
X180750D01*
X181741Y220107D01*
X182581Y220669D01*
X184581Y222669D01*
X185143Y223509D01*
X185340Y224500D01*
Y234479D01*
X197875Y247910D01*
X260677D01*
X260919Y247669D01*
X261759Y247107D01*
X262750Y246910D01*
X278910D01*
Y240000D01*
X277500D01*
Y157500D01*
X380000D01*
Y240000D01*
X378340D01*
Y250250D01*
X378269Y250607D01*
X378237Y250971D01*
X378171Y251099D01*
X378143Y251241D01*
X377940Y251544D01*
X377772Y251868D01*
X376772Y253118D01*
X376662Y253211D01*
X376581Y253331D01*
X376278Y253534D01*
X375999Y253769D01*
X375862Y253812D01*
X375741Y253893D01*
X375383Y253964D01*
X375036Y254074D01*
X374040Y254942D01*
Y262474D01*
X374331Y262669D01*
X375331Y263669D01*
X375893Y264509D01*
X376090Y265500D01*
X376090Y286500D01*
X375893Y287491D01*
X375331Y288331D01*
X374331Y289331D01*
X373491Y289893D01*
X372500Y290090D01*
X349540Y290090D01*
X349339Y290050D01*
X336683D01*
X335692Y289853D01*
X334852Y289291D01*
X334600Y289040D01*
X333960D01*
Y288400D01*
X333669Y288108D01*
X333107Y287268D01*
X332910Y286277D01*
X332910Y279500D01*
X333107Y278509D01*
X333669Y277669D01*
X334669Y276669D01*
X335509Y276107D01*
X336500Y275910D01*
X340910D01*
Y240000D01*
X320590D01*
Y255500D01*
X320590Y269427D01*
X324331Y273169D01*
X324893Y274009D01*
X325090Y275000D01*
Y290500D01*
X324893Y291491D01*
X324331Y292331D01*
X323491Y292893D01*
X322500Y293090D01*
X305040D01*
Y296634D01*
X305263Y296783D01*
X306460Y296960D01*
Y296960D01*
X322040D01*
Y308040D01*
X306460D01*
Y306385D01*
X304250D01*
X302764Y306089D01*
X301503Y305247D01*
X299546Y303290D01*
X290960D01*
Y293090D01*
X285500D01*
X284509Y292893D01*
X283669Y292331D01*
X279669Y288331D01*
X279107Y287491D01*
X278910Y286500D01*
Y274090D01*
X195947D01*
X195750Y274090D01*
X194759Y274974D01*
Y279242D01*
X199977Y284460D01*
X212790D01*
Y304540D01*
X188790D01*
X188635Y304604D01*
Y316618D01*
X190570Y317420D01*
X192980Y319270D01*
X194830Y321680D01*
X195993Y324487D01*
X196390Y327500D01*
X195993Y330513D01*
X194830Y333320D01*
X192980Y335730D01*
X190570Y337580D01*
X187763Y338743D01*
X184891Y339121D01*
X184974Y340391D01*
X315809D01*
X316175Y339910D01*
D02*
G37*
G36*
X552882Y81376D02*
X549391Y77885D01*
X523790D01*
Y81040D01*
X514885D01*
Y91460D01*
X520290D01*
Y96615D01*
X521860D01*
Y91960D01*
X532940D01*
Y106690D01*
X532940Y107040D01*
X532940D01*
Y107960D01*
X532940D01*
Y123040D01*
X532539D01*
Y124599D01*
X533498Y126033D01*
X533889Y128000D01*
X533545Y129730D01*
X534218Y131000D01*
X552882D01*
Y81376D01*
D02*
G37*
%LPC*%
G36*
X123440Y328540D02*
X119170D01*
Y322270D01*
X123440D01*
Y328540D01*
D02*
G37*
G36*
X116630D02*
X112360D01*
Y322270D01*
X116630D01*
Y328540D01*
D02*
G37*
G36*
X305040Y288290D02*
X299270D01*
Y284270D01*
X305040D01*
Y288290D01*
D02*
G37*
G36*
X296730D02*
X290960D01*
Y284270D01*
X296730D01*
Y288290D01*
D02*
G37*
G36*
X305040Y281730D02*
X299270D01*
Y277710D01*
X305040D01*
Y281730D01*
D02*
G37*
G36*
X296730D02*
X290960D01*
Y277710D01*
X296730D01*
Y281730D01*
D02*
G37*
G36*
X706670Y344959D02*
Y336270D01*
X715359D01*
X715182Y337621D01*
X714170Y340063D01*
X712561Y342161D01*
X710463Y343770D01*
X708021Y344782D01*
X706670Y344959D01*
D02*
G37*
G36*
X704130D02*
X702779Y344782D01*
X700337Y343770D01*
X698239Y342161D01*
X696630Y340063D01*
X695618Y337621D01*
X695441Y336270D01*
X704130D01*
Y344959D01*
D02*
G37*
G36*
X715359Y333730D02*
X706670D01*
Y325041D01*
X708021Y325218D01*
X710463Y326230D01*
X712561Y327839D01*
X714170Y329937D01*
X715182Y332379D01*
X715359Y333730D01*
D02*
G37*
G36*
X704130D02*
X695441D01*
X695618Y332379D01*
X696630Y329937D01*
X698239Y327839D01*
X700337Y326230D01*
X702779Y325218D01*
X704130Y325041D01*
Y333730D01*
D02*
G37*
G36*
X521540Y271140D02*
X515270D01*
Y266870D01*
X521540D01*
Y271140D01*
D02*
G37*
G36*
X512730D02*
X506460D01*
Y266870D01*
X512730D01*
Y271140D01*
D02*
G37*
G36*
X559790Y271119D02*
X553521D01*
Y266849D01*
X559790D01*
Y271119D01*
D02*
G37*
G36*
X550980D02*
X544711D01*
Y266849D01*
X550980D01*
Y271119D01*
D02*
G37*
G36*
X541791D02*
X535521D01*
Y266849D01*
X541791D01*
Y271119D01*
D02*
G37*
G36*
X532980D02*
X526711D01*
Y266849D01*
X532980D01*
Y271119D01*
D02*
G37*
G36*
X578791Y270769D02*
X573021D01*
Y266749D01*
X578791D01*
Y270769D01*
D02*
G37*
G36*
X570480D02*
X564711D01*
Y266749D01*
X570480D01*
Y270769D01*
D02*
G37*
G36*
X779440Y196540D02*
X774970D01*
Y192270D01*
X779440D01*
Y193254D01*
Y196540D01*
D02*
G37*
G36*
X772430D02*
X767960D01*
Y193521D01*
D01*
Y192270D01*
X772430D01*
Y196540D01*
D02*
G37*
G36*
X311540Y338290D02*
X305770D01*
Y334270D01*
X311540D01*
Y338290D01*
D02*
G37*
G36*
X303230D02*
X297460D01*
Y334270D01*
X303230D01*
Y338290D01*
D02*
G37*
G36*
X311540Y331730D02*
X305770D01*
Y327710D01*
X311540D01*
Y331730D01*
D02*
G37*
G36*
X303230D02*
X297460D01*
Y327710D01*
X303230D01*
Y331730D01*
D02*
G37*
G36*
X330040Y323440D02*
X314960D01*
Y321835D01*
X311540D01*
Y323290D01*
X297460D01*
Y312710D01*
X311540D01*
Y314065D01*
X314960D01*
Y312360D01*
X330040D01*
Y314065D01*
X334460D01*
Y312710D01*
X337615D01*
Y308040D01*
X333960D01*
Y296960D01*
X349540D01*
Y308040D01*
X345385D01*
Y312710D01*
X348540D01*
Y323290D01*
X334460D01*
Y321835D01*
X330040D01*
Y323440D01*
D02*
G37*
G36*
X229420Y304459D02*
Y295770D01*
X238109D01*
X237932Y297121D01*
X236920Y299563D01*
X235311Y301661D01*
X233213Y303270D01*
X230771Y304282D01*
X229420Y304459D01*
D02*
G37*
G36*
X226880D02*
X225529Y304282D01*
X223087Y303270D01*
X220989Y301661D01*
X219380Y299563D01*
X218368Y297121D01*
X218191Y295770D01*
X226880D01*
Y304459D01*
D02*
G37*
G36*
X238109Y293230D02*
X229420D01*
Y284541D01*
X230771Y284718D01*
X233213Y285730D01*
X235311Y287339D01*
X236920Y289437D01*
X237932Y291879D01*
X238109Y293230D01*
D02*
G37*
G36*
X226880D02*
X218191D01*
X218368Y291879D01*
X219380Y289437D01*
X220989Y287339D01*
X223087Y285730D01*
X225529Y284718D01*
X226880Y284541D01*
Y293230D01*
D02*
G37*
G36*
X33540Y244540D02*
X29270D01*
Y239270D01*
X33540D01*
Y244540D01*
D02*
G37*
G36*
X26730D02*
X22460D01*
Y239270D01*
X26730D01*
Y244540D01*
D02*
G37*
G36*
X33540Y236730D02*
X29270D01*
Y231460D01*
X33540D01*
Y236730D01*
D02*
G37*
G36*
X26730D02*
X22460D01*
Y231460D01*
X26730D01*
Y236730D01*
D02*
G37*
G36*
X17790Y273040D02*
X7210D01*
Y258960D01*
X8270D01*
Y244540D01*
X6270D01*
Y231460D01*
X17350D01*
Y244540D01*
X16040D01*
Y258960D01*
X17790D01*
Y273040D01*
D02*
G37*
G36*
X84790Y231730D02*
X79020D01*
Y227710D01*
X84790D01*
Y231730D01*
D02*
G37*
G36*
X76480D02*
X70710D01*
Y227710D01*
X76480D01*
Y231730D01*
D02*
G37*
G36*
X126690Y226230D02*
X122420D01*
Y219960D01*
X126690D01*
Y226230D01*
D02*
G37*
G36*
X119880D02*
X115610D01*
Y219960D01*
X119880D01*
Y226230D01*
D02*
G37*
G36*
X214040Y241040D02*
X194960D01*
Y214960D01*
X214040D01*
Y241040D01*
D02*
G37*
G36*
X19000Y220607D02*
X11000D01*
X8966Y220340D01*
X7071Y219555D01*
X5444Y218306D01*
X4196Y216679D01*
X3410Y214784D01*
X3143Y212750D01*
X3410Y210716D01*
X4196Y208821D01*
X5444Y207194D01*
X7071Y205945D01*
X8966Y205161D01*
X11000Y204893D01*
X19000D01*
X21034Y205161D01*
X22929Y205945D01*
X24556Y207194D01*
X25805Y208821D01*
X26590Y210716D01*
X26857Y212750D01*
X26590Y214784D01*
X25805Y216679D01*
X24556Y218306D01*
X22929Y219555D01*
X21034Y220340D01*
X19000Y220607D01*
D02*
G37*
G36*
X178790Y210290D02*
X167710D01*
Y196710D01*
X178790D01*
Y210290D01*
D02*
G37*
G36*
X460730Y196630D02*
X454460D01*
Y192360D01*
X460730D01*
Y196630D01*
D02*
G37*
G36*
X467130Y185540D02*
X462860D01*
Y179270D01*
X467130D01*
Y185540D01*
D02*
G37*
G36*
X473940Y176730D02*
X468400D01*
X462860D01*
Y170810D01*
X462860Y170460D01*
Y169540D01*
X462860Y169190D01*
Y163270D01*
X468400D01*
X473940D01*
Y169190D01*
X473940Y169540D01*
Y170460D01*
X473940Y170810D01*
Y176730D01*
D02*
G37*
G36*
Y160730D02*
X469670D01*
Y154460D01*
X473940D01*
Y160730D01*
D02*
G37*
G36*
X467130D02*
X462860D01*
Y154460D01*
X467130D01*
Y160730D01*
D02*
G37*
G36*
X761941Y150671D02*
X757471D01*
Y146401D01*
X761941D01*
Y150671D01*
D02*
G37*
G36*
X743680Y150630D02*
X739210D01*
Y149666D01*
Y146360D01*
X743680D01*
Y150630D01*
D02*
G37*
G36*
X19000Y149107D02*
X11000D01*
X8966Y148840D01*
X7071Y148055D01*
X5444Y146806D01*
X4196Y145179D01*
X3410Y143284D01*
X3143Y141250D01*
X3410Y139216D01*
X4196Y137321D01*
X5444Y135694D01*
X7071Y134445D01*
X8966Y133660D01*
X11000Y133393D01*
X19000D01*
X21034Y133660D01*
X22929Y134445D01*
X24556Y135694D01*
X25805Y137321D01*
X26590Y139216D01*
X26857Y141250D01*
X26590Y143284D01*
X25805Y145179D01*
X24556Y146806D01*
X22929Y148055D01*
X21034Y148840D01*
X19000Y149107D01*
D02*
G37*
G36*
X214040Y141040D02*
X205770D01*
Y129270D01*
X214040D01*
Y141040D01*
D02*
G37*
G36*
X203230D02*
X194960D01*
Y129270D01*
X203230D01*
Y141040D01*
D02*
G37*
G36*
X806748Y138344D02*
X800228D01*
Y126074D01*
X806748D01*
Y138344D01*
D02*
G37*
G36*
X768188D02*
X761668D01*
Y126074D01*
X768188D01*
Y138344D01*
D02*
G37*
G36*
X33290Y123540D02*
X29020D01*
Y118270D01*
X33290D01*
Y123540D01*
D02*
G37*
G36*
X26480D02*
X22210D01*
Y118270D01*
X26480D01*
Y123540D01*
D02*
G37*
G36*
X259040Y141040D02*
X239960D01*
Y114960D01*
X259040D01*
Y141040D01*
D02*
G37*
G36*
X214040Y126730D02*
X205770D01*
Y114960D01*
X214040D01*
Y126730D01*
D02*
G37*
G36*
X203230D02*
X194960D01*
Y114960D01*
X203230D01*
Y126730D01*
D02*
G37*
G36*
X806748Y123534D02*
X800228D01*
Y111264D01*
X806748D01*
Y123534D01*
D02*
G37*
G36*
X797688D02*
X791168D01*
Y111264D01*
X797688D01*
Y123534D01*
D02*
G37*
G36*
X777248D02*
X770728D01*
Y111264D01*
X777248D01*
Y123534D01*
D02*
G37*
G36*
X768188D02*
X761668D01*
Y111264D01*
X768188D01*
Y123534D01*
D02*
G37*
G36*
X33290Y115730D02*
X29020D01*
Y110460D01*
X33290D01*
Y115730D01*
D02*
G37*
G36*
X26480D02*
X22210D01*
Y110460D01*
X26480D01*
Y115730D01*
D02*
G37*
G36*
X726740Y114430D02*
X722270D01*
Y110160D01*
X726740D01*
Y114430D01*
D02*
G37*
G36*
X614540Y113440D02*
X608270D01*
Y109170D01*
X614540D01*
Y113440D01*
D02*
G37*
G36*
X605730D02*
X599460D01*
Y109170D01*
X605730D01*
Y113440D01*
D02*
G37*
G36*
X704730Y114730D02*
X696460D01*
Y107460D01*
X704730D01*
Y114730D01*
D02*
G37*
G36*
X614540Y106630D02*
X608270D01*
Y102360D01*
X614540D01*
Y106630D01*
D02*
G37*
G36*
X605730D02*
X599460D01*
Y102360D01*
X605730D01*
Y106630D01*
D02*
G37*
G36*
X17100Y123540D02*
X6020D01*
Y110460D01*
X7520D01*
Y97540D01*
X5960D01*
Y83460D01*
X16540D01*
Y97540D01*
X15290D01*
Y110460D01*
X17100D01*
Y123540D01*
D02*
G37*
G36*
X152500Y86148D02*
X149226Y85717D01*
X146176Y84454D01*
X143556Y82444D01*
X141546Y79824D01*
X140283Y76774D01*
X139852Y73500D01*
X140283Y70226D01*
X141546Y67176D01*
X143556Y64556D01*
X146176Y62546D01*
X149226Y61283D01*
X152500Y60852D01*
X155774Y61283D01*
X158824Y62546D01*
X161444Y64556D01*
X163454Y67176D01*
X164559Y69845D01*
X196982D01*
Y68419D01*
X210562D01*
Y79499D01*
X196982D01*
Y77614D01*
X164369D01*
X163454Y79824D01*
X161444Y82444D01*
X158824Y84454D01*
X155774Y85717D01*
X152500Y86148D01*
D02*
G37*
G36*
X232062Y69999D02*
X226542D01*
Y65729D01*
X232062D01*
Y69999D01*
D02*
G37*
G36*
X224002D02*
X218482D01*
Y65729D01*
X224002D01*
Y69999D01*
D02*
G37*
G36*
X102500Y86148D02*
X99226Y85717D01*
X96176Y84454D01*
X93556Y82444D01*
X91546Y79824D01*
X90283Y76774D01*
X89852Y73500D01*
X90283Y70226D01*
X91546Y67176D01*
X93556Y64556D01*
X96176Y62546D01*
X99226Y61283D01*
X102500Y60852D01*
X105774Y61283D01*
X108824Y62546D01*
X111444Y64556D01*
X113454Y67176D01*
X114717Y70226D01*
X115148Y73500D01*
X114717Y76774D01*
X113454Y79824D01*
X111444Y82444D01*
X108824Y84454D01*
X105774Y85717D01*
X102500Y86148D01*
D02*
G37*
G36*
X224002Y63189D02*
X218482D01*
Y58919D01*
X224002D01*
Y63189D01*
D02*
G37*
G36*
X683471Y58342D02*
X669391D01*
Y47762D01*
X672535D01*
Y35540D01*
X670114D01*
Y24460D01*
X683194D01*
Y35540D01*
X680773D01*
Y47762D01*
X683471D01*
Y58342D01*
D02*
G37*
G36*
X715020D02*
X700940D01*
Y47762D01*
X703881D01*
Y35230D01*
X701460D01*
Y24150D01*
X714540D01*
Y35230D01*
X712119D01*
Y47762D01*
X715020D01*
Y58342D01*
D02*
G37*
G36*
X683194Y19350D02*
X677924D01*
Y15080D01*
X683194D01*
Y19350D01*
D02*
G37*
G36*
X675384D02*
X670114D01*
Y15080D01*
X675384D01*
Y19350D01*
D02*
G37*
G36*
X714540Y19040D02*
X709270D01*
Y14770D01*
X714540D01*
Y19040D01*
D02*
G37*
G36*
X706730D02*
X701460D01*
Y14770D01*
X706730D01*
Y19040D01*
D02*
G37*
G36*
X603700Y20438D02*
Y14270D01*
X609868D01*
X609776Y14968D01*
X609017Y16803D01*
X607808Y18378D01*
X606233Y19586D01*
X604399Y20346D01*
X603700Y20438D01*
D02*
G37*
G36*
X683194Y12540D02*
X677924D01*
Y8270D01*
X683194D01*
Y12540D01*
D02*
G37*
G36*
X675384D02*
X670114D01*
Y8270D01*
X675384D01*
Y12540D01*
D02*
G37*
G36*
X714540Y12230D02*
X709270D01*
Y7960D01*
X714540D01*
Y12230D01*
D02*
G37*
G36*
X706730D02*
X701460D01*
Y7960D01*
X706730D01*
Y12230D01*
D02*
G37*
G36*
X609868Y11730D02*
X603700D01*
Y5562D01*
X604399Y5654D01*
X606233Y6414D01*
X607808Y7622D01*
X609017Y9197D01*
X609776Y11032D01*
X609868Y11730D01*
D02*
G37*
G36*
X582040Y50790D02*
Y50790D01*
X581727Y50790D01*
X567960D01*
Y49385D01*
X561000D01*
X559513Y49089D01*
X558253Y48247D01*
X557411Y46987D01*
X557115Y45500D01*
Y20540D01*
X556791D01*
Y5460D01*
X571870D01*
Y6020D01*
X573009Y6581D01*
X573228Y6414D01*
X575062Y5654D01*
X577030Y5395D01*
X578999Y5654D01*
X580833Y6414D01*
X582408Y7622D01*
X582746Y8062D01*
X584016D01*
X584353Y7622D01*
X585928Y6414D01*
X587762Y5654D01*
X589730Y5395D01*
X591699Y5654D01*
X593533Y6414D01*
X595108Y7622D01*
X595446Y8062D01*
X596716D01*
X597053Y7622D01*
X598628Y6414D01*
X600462Y5654D01*
X601161Y5562D01*
Y13000D01*
Y20438D01*
X600462Y20346D01*
X598628Y19586D01*
X597053Y18378D01*
X596716Y17938D01*
X595446D01*
X595108Y18378D01*
X593885Y19316D01*
Y25210D01*
X597040D01*
Y35790D01*
Y40210D01*
Y50790D01*
X583273D01*
X582960Y50790D01*
Y50790D01*
X582040D01*
D02*
G37*
G36*
X548140Y123040D02*
X543870D01*
Y116770D01*
X548140D01*
Y123040D01*
D02*
G37*
G36*
X541330D02*
X537060D01*
Y116770D01*
X541330D01*
Y123040D01*
D02*
G37*
G36*
X548140Y114230D02*
X542600D01*
X537060D01*
Y108310D01*
X537060Y107960D01*
Y107040D01*
X537060Y106690D01*
Y100770D01*
X542600D01*
X548140D01*
Y106690D01*
X548140Y107040D01*
Y107960D01*
X548140Y108310D01*
Y114230D01*
D02*
G37*
G36*
Y98230D02*
X543870D01*
Y91960D01*
X548140D01*
Y98230D01*
D02*
G37*
G36*
X541330D02*
X537060D01*
Y91960D01*
X541330D01*
Y98230D01*
D02*
G37*
%LPD*%
D11*
X641298Y174500D02*
X672250D01*
X639554Y176243D02*
X641298Y174500D01*
X672250D02*
X672250Y174500D01*
X622520D02*
X638326D01*
X645500Y183356D02*
Y184962D01*
X666000Y195750D02*
X672250Y189500D01*
X639385Y187810D02*
X647326Y195750D01*
X666000D01*
X654982Y161225D02*
X655275D01*
X656000Y160500D01*
X654982Y161225D02*
Y161518D01*
X651540Y164960D02*
X654982Y161518D01*
X575000Y45500D02*
X590000D01*
X561000D02*
X575000D01*
X511000Y100500D02*
X527400D01*
X622520Y169500D02*
X672250D01*
X681250Y189500D02*
Y198500D01*
Y189500D02*
X681288Y189462D01*
X542600Y99500D02*
Y115500D01*
X668000Y136700D02*
X668000Y136700D01*
Y125300D02*
Y136700D01*
X575000Y15030D02*
X577030Y13000D01*
X575000Y15030D02*
Y30500D01*
X589730Y13000D02*
X590000Y13269D01*
Y30500D01*
X561000Y16330D02*
Y45500D01*
Y16330D02*
X564330Y13000D01*
X601750Y160750D02*
X601767Y160733D01*
Y143753D02*
Y160733D01*
X575000Y195000D02*
X576767Y196767D01*
X581767Y197233D02*
Y230253D01*
Y197233D02*
X584000Y195000D01*
X576767Y196767D02*
Y230253D01*
X671200Y149500D02*
X679000D01*
X232000Y52000D02*
X246000Y66000D01*
X511000D02*
Y95500D01*
X246000Y66000D02*
X511000D01*
X680300Y136700D02*
X684000Y133000D01*
X668000Y136700D02*
X680300D01*
X449397Y107465D02*
X451362Y105500D01*
X463000D01*
X681250Y159250D02*
Y160500D01*
X678000Y156000D02*
X681250Y159250D01*
X667000Y156000D02*
X678000D01*
X661000Y150000D02*
X667000Y156000D01*
X668000Y146300D02*
X671200Y149500D01*
X615537Y150000D02*
X661000D01*
X611537Y154000D02*
X615537Y150000D01*
X645500Y184962D02*
X648328Y187790D01*
X648309Y187810D02*
X648328Y187790D01*
X648309Y187810D02*
X663941D01*
X653635Y181060D02*
X654460D01*
X656021Y179500D01*
X672250D01*
X643747Y159503D02*
X645250Y158000D01*
X622517Y159503D02*
X643747D01*
X656000Y160500D02*
X656673Y157211D01*
X622974Y164960D02*
X651540D01*
X635689Y184113D02*
X639385Y187810D01*
X635689Y184113D02*
Y184113D01*
X631079Y179503D02*
X635689Y184113D01*
X622517Y174503D02*
X622520Y174500D01*
X611537Y154000D02*
Y180605D01*
X615435Y184503D01*
X622517D01*
X535929Y164415D02*
X536017Y164503D01*
X477961Y87040D02*
X485000Y94080D01*
X490302Y108948D02*
Y116802D01*
X528415Y164415D02*
X535929D01*
X475500Y95500D02*
X480000Y100000D01*
X490302Y116802D02*
X531500Y158000D01*
X485000Y121000D02*
X528415Y164415D01*
X485000Y94080D02*
Y121000D01*
X480000Y100000D02*
Y126000D01*
X523503Y169503D01*
X490302Y108948D02*
X493750Y105500D01*
X249000Y227500D02*
X249500Y228000D01*
Y162500D02*
Y228000D01*
Y162500D02*
X260000Y152000D01*
X435000D01*
X497342Y110500D02*
Y114092D01*
Y110500D02*
X511000D01*
X531500Y158000D02*
X536017Y159503D01*
X497342Y114092D02*
X527003Y143753D01*
X551767D01*
X493750Y105500D02*
X511000D01*
X463000Y95500D02*
X475500D01*
X448960Y87040D02*
X477961D01*
X523503Y169503D02*
X536017D01*
X435000Y152000D02*
X443000Y160000D01*
Y225500D01*
X622517Y209503D02*
X640397D01*
X611997Y216497D02*
X622500Y227000D01*
X611307Y222477D02*
Y258807D01*
X607457Y218627D02*
X611307Y222477D01*
X622500Y227000D02*
Y242210D01*
X680000Y299710D01*
Y335000D01*
X607457Y191207D02*
Y218627D01*
X611997Y207942D02*
Y216497D01*
Y207942D02*
X614205Y205733D01*
X615643Y204503D02*
X622517D01*
X614412Y205733D02*
X615643Y204503D01*
X614205Y205733D02*
X614412D01*
X611307Y258807D02*
X655000Y302500D01*
X600753Y184503D02*
X607457Y191207D01*
X536017Y184503D02*
X600753D01*
X69000Y52000D02*
X232000D01*
X62000Y59000D02*
Y84000D01*
Y59000D02*
X69000Y52000D01*
X55000Y91000D02*
X62000Y84000D01*
X640397Y209503D02*
X644000Y205900D01*
X646000D01*
X696250Y191290D02*
Y198500D01*
X703040Y184500D02*
X710250D01*
X691250Y160500D02*
Y170907D01*
X630000Y312500D02*
Y334200D01*
X606767Y230253D02*
Y289267D01*
X630000Y312500D01*
X654600Y335000D02*
X655000Y334600D01*
Y302500D02*
Y334600D01*
X629200Y335000D02*
X630000Y334200D01*
X706700Y211200D02*
X707200Y211700D01*
X701250Y201460D02*
X706700Y206910D01*
Y211200D01*
X701250Y198500D02*
Y201460D01*
X556767Y79767D02*
Y143753D01*
X551000Y74000D02*
X556767Y79767D01*
X519500Y74000D02*
X551000D01*
X511000Y115500D02*
X527400D01*
X26250Y90500D02*
X26750Y91000D01*
X55000D01*
X607000Y123100D02*
Y136646D01*
X606767Y136879D02*
X607000Y136646D01*
X606767Y136879D02*
Y143753D01*
X446000Y90000D02*
X448960Y87040D01*
X152500Y73500D02*
X152730Y73730D01*
X203542D01*
X203772Y73959D01*
X515793Y179503D02*
X536017D01*
X510290Y174000D02*
X515793Y179503D01*
X507713Y162500D02*
X519717Y174503D01*
X536017D01*
X498000Y162500D02*
X507713D01*
X506753Y184503D02*
X536017D01*
X499750Y177500D02*
X506753Y184503D01*
X484100Y162500D02*
X498000D01*
X484100Y177500D02*
X498000D01*
X483600Y178000D02*
X484100Y177500D01*
X483600Y162000D02*
X484100Y162500D01*
X498000Y177500D02*
X499750D01*
X446000Y90000D02*
Y98000D01*
X448500Y100500D01*
X463000D01*
X527400Y115500D02*
Y115500D01*
X679000Y149500D02*
X686250Y156750D01*
Y160500D01*
X622517Y179503D02*
X631079D01*
X639385Y187810D02*
X639385D01*
X443000Y225500D02*
X468000Y250500D01*
X494000D01*
X622517Y164503D02*
X622974Y164960D01*
X663941Y187810D02*
X667250Y184500D01*
X513900Y250500D02*
X514000Y250400D01*
X494000Y250500D02*
X513900D01*
X536014Y189500D02*
X536017Y189503D01*
X519000Y194500D02*
X524000Y189500D01*
X536014D01*
X495500Y194500D02*
X519000D01*
X478500Y215000D02*
Y216500D01*
X522000Y198500D02*
X525997Y194503D01*
X520000Y205500D02*
X522000Y203500D01*
Y198500D02*
Y203500D01*
X525997Y194503D02*
X536017D01*
X488000Y205500D02*
X520000D01*
X478500Y215000D02*
X488000Y205500D01*
X462000Y213100D02*
X478400D01*
X11250Y90500D02*
X11405Y90655D01*
Y116845D02*
X11560Y117000D01*
X11810Y238000D02*
X12155Y238345D01*
Y265655D02*
X12500Y266000D01*
X77750Y248000D02*
X77875Y248125D01*
X95575D02*
X95700Y248250D01*
X108400Y302750D02*
Y306000D01*
X116170Y319270D02*
X117900Y321000D01*
X116170Y313770D02*
Y319270D01*
X139560Y259310D02*
X144750Y264500D01*
X298000Y298000D02*
X299750D01*
X304250Y302500D01*
X304500Y318000D02*
X304550Y317950D01*
X341500Y302750D02*
X341750Y302500D01*
X341450Y317950D02*
X341500Y318000D01*
X524000Y211500D02*
X525997Y209503D01*
X514000Y250400D02*
X524000Y240400D01*
X571750Y250479D02*
X571767Y250463D01*
X622517Y169503D02*
X622520Y169500D01*
X668000Y115700D02*
X668300Y116000D01*
X679000Y211500D02*
X679200D01*
X686250Y198500D02*
Y204250D01*
X679000Y211500D02*
X686250Y204250D01*
X703450Y148200D02*
Y151050D01*
Y135550D02*
Y148200D01*
X721000Y125300D02*
Y130500D01*
X11405Y90655D02*
Y116845D01*
X108400Y248250D02*
Y251500D01*
Y306000D02*
X116170Y313770D01*
X108400Y251500D02*
X116210Y259310D01*
X144750Y264500D02*
Y288500D01*
X180750Y292500D02*
X184750Y296500D01*
X341500Y302750D02*
Y318000D01*
X524000Y211500D02*
Y240400D01*
X571767Y230253D02*
Y250463D01*
X693950Y151450D02*
X696250Y153750D01*
X693950Y148200D02*
Y151450D01*
Y125950D02*
Y148200D01*
X696250Y153750D02*
Y160500D01*
X701250Y153250D02*
Y160500D01*
X703450Y135550D02*
X706000Y133000D01*
X701250Y153250D02*
X703450Y151050D01*
X718500Y133000D02*
X721000Y130500D01*
X12155Y238345D02*
Y265655D01*
X184750Y296500D02*
Y327500D01*
X77875Y248125D02*
X95575D01*
X116210Y259310D02*
X139560D01*
X304250Y302500D02*
X314250D01*
X525997Y209503D02*
X536017D01*
X668300Y116000D02*
X684000D01*
X693950Y125950D01*
X667250Y184500D02*
X672250D01*
X690000Y211500D02*
X691250Y210250D01*
Y198500D02*
Y210250D01*
X144750Y288500D02*
X148750Y292500D01*
X706000Y133000D02*
X718500D01*
X304550Y317950D02*
X341450D01*
X148750Y292500D02*
X180750D01*
D14*
X639554Y176243D02*
D03*
X657000Y189750D02*
D03*
X662800Y167982D02*
D03*
D19*
X656673Y157211D02*
D03*
D24*
X90631Y203500D02*
D03*
X75109D02*
D03*
D61*
X799450Y181450D02*
X802092Y181868D01*
X804476Y183083D01*
X806367Y184974D01*
X807581Y187358D01*
X808000Y190000D01*
X816000Y219000D02*
X813528Y218608D01*
X811298Y217472D01*
X809528Y215702D01*
X808392Y213472D01*
X808000Y211000D01*
X793700Y181450D02*
X799450D01*
X808000Y190000D02*
Y211000D01*
X816000Y219000D02*
X820000D01*
X744950Y161520D02*
X756181D01*
X733720D02*
X744950D01*
X718500Y161500D02*
X733700D01*
X715000Y165000D02*
X718500Y161500D01*
X733700D02*
X733720Y161520D01*
X756181D02*
X756201Y161541D01*
X724074Y181450D02*
X733250D01*
X722950Y181400D02*
X722975Y181425D01*
X763000Y181450D02*
X763050Y181400D01*
X784150D02*
X784200Y181450D01*
X722950Y171500D02*
X723050Y171400D01*
X722773Y171677D02*
X722950Y171500D01*
X784200Y171950D02*
X784208Y171942D01*
Y140055D02*
Y171942D01*
X733225Y181425D02*
X733250Y181450D01*
X763050Y181400D02*
X773700D01*
X743150Y181450D02*
X753400D01*
X773700Y181400D02*
X784150D01*
X723050Y171400D02*
X733700D01*
D62*
X844700Y218950D02*
D03*
D63*
X871700Y219450D02*
D03*
D64*
X856000Y196950D02*
D03*
Y171950D02*
D03*
Y149950D02*
D03*
Y124950D02*
D03*
D65*
X844700Y239950D02*
D03*
D66*
X845300Y184450D02*
D03*
Y137450D02*
D03*
D67*
X871700Y160950D02*
D03*
Y113950D02*
D03*
D68*
X849500Y102950D02*
D03*
D69*
X691250Y179500D02*
D03*
D70*
X681250Y198500D02*
D03*
X686250D02*
D03*
X691250D02*
D03*
X696250D02*
D03*
X701250D02*
D03*
Y160500D02*
D03*
X696250D02*
D03*
X691250D02*
D03*
X686250D02*
D03*
X681250D02*
D03*
D71*
X710250Y189500D02*
D03*
Y184500D02*
D03*
Y179500D02*
D03*
Y174500D02*
D03*
Y169500D02*
D03*
X672250D02*
D03*
Y174500D02*
D03*
Y179500D02*
D03*
Y184500D02*
D03*
Y189500D02*
D03*
D72*
X590000Y30500D02*
D03*
Y45500D02*
D03*
X575000Y30500D02*
D03*
Y45500D02*
D03*
X76750Y307000D02*
D03*
Y292000D02*
D03*
X298000Y298000D02*
D03*
Y283000D02*
D03*
X341500Y333000D02*
D03*
Y318000D02*
D03*
X494000Y265500D02*
D03*
Y250500D02*
D03*
X707980Y53053D02*
D03*
Y68053D02*
D03*
X77750Y248000D02*
D03*
Y233000D02*
D03*
X676431Y53053D02*
D03*
Y68053D02*
D03*
X304500Y333000D02*
D03*
Y318000D02*
D03*
X498000Y177500D02*
D03*
Y162500D02*
D03*
X571750Y265479D02*
D03*
Y250479D02*
D03*
D73*
X15000Y165750D02*
D03*
Y188250D02*
D03*
D74*
X37300Y153800D02*
D03*
Y200200D02*
D03*
D75*
X43000Y164000D02*
D03*
Y170500D02*
D03*
Y183500D02*
D03*
Y177000D02*
D03*
Y190000D02*
D03*
D76*
X114750Y275500D02*
D03*
D77*
X94500Y172000D02*
D03*
Y181500D02*
D03*
Y162500D02*
D03*
X71500Y172000D02*
D03*
Y181500D02*
D03*
Y162500D02*
D03*
D78*
X133800Y302750D02*
D03*
X121100D02*
D03*
X108400D02*
D03*
X133800Y248250D02*
D03*
X121100D02*
D03*
X95700Y302750D02*
D03*
X108400Y248250D02*
D03*
X95700D02*
D03*
D79*
X133100Y321000D02*
D03*
X117900D02*
D03*
X483600Y162000D02*
D03*
X468400D02*
D03*
X527400Y99500D02*
D03*
X542600D02*
D03*
X136350Y227500D02*
D03*
X121150D02*
D03*
X483600Y178000D02*
D03*
X468400D02*
D03*
X542600Y115500D02*
D03*
X527400D02*
D03*
D80*
X163750Y225000D02*
D03*
X154250Y203500D02*
D03*
X173250D02*
D03*
X173250Y262250D02*
D03*
X154250D02*
D03*
X163750Y240750D02*
D03*
X173250Y303250D02*
D03*
X154250D02*
D03*
X163750Y281750D02*
D03*
D81*
X322500Y333100D02*
D03*
Y317900D02*
D03*
X514000Y265600D02*
D03*
Y250400D02*
D03*
X534250Y265579D02*
D03*
Y250379D02*
D03*
X462000Y213100D02*
D03*
Y197900D02*
D03*
X512000Y213100D02*
D03*
Y197900D02*
D03*
X607000Y123100D02*
D03*
Y107900D02*
D03*
X646000Y205900D02*
D03*
Y221100D02*
D03*
X552251Y265579D02*
D03*
Y250379D02*
D03*
D82*
X341750Y293000D02*
D03*
Y302500D02*
D03*
Y283500D02*
D03*
X314250Y302500D02*
D03*
Y283500D02*
D03*
D83*
X668000Y146300D02*
D03*
Y136700D02*
D03*
X679000Y221100D02*
D03*
Y211500D02*
D03*
X721000Y125300D02*
D03*
Y115700D02*
D03*
X717950Y221250D02*
D03*
Y211650D02*
D03*
X744950Y161500D02*
D03*
Y151900D02*
D03*
X756201Y161541D02*
D03*
Y151941D02*
D03*
X668000Y125300D02*
D03*
Y115700D02*
D03*
X690000Y221100D02*
D03*
Y211500D02*
D03*
X773700Y191000D02*
D03*
Y181400D02*
D03*
D84*
X703450Y148200D02*
D03*
X693950D02*
D03*
X793700Y181450D02*
D03*
X784200D02*
D03*
D85*
X722950Y181400D02*
D03*
Y171500D02*
D03*
X733700Y171400D02*
D03*
Y161500D02*
D03*
D86*
X743150Y181450D02*
D03*
X733250D02*
D03*
D87*
X708000Y13500D02*
D03*
Y29690D02*
D03*
X676654Y13810D02*
D03*
Y30000D02*
D03*
D88*
X763000Y181450D02*
D03*
X753400D02*
D03*
D89*
X784208Y140055D02*
D03*
D90*
X798958Y124804D02*
D03*
X769458D02*
D03*
D91*
X784200Y181450D02*
D03*
Y171950D02*
D03*
X707200Y221200D02*
D03*
Y211700D02*
D03*
D92*
X387000Y305500D02*
D03*
X360500D02*
D03*
X331250Y255500D02*
D03*
X304750D02*
D03*
D93*
X225272Y64459D02*
D03*
Y83459D02*
D03*
X203772Y73959D02*
D03*
X388750Y268000D02*
D03*
X367250Y258500D02*
D03*
Y277500D02*
D03*
D94*
X495500Y216500D02*
D03*
Y194500D02*
D03*
X478500Y216500D02*
D03*
Y194500D02*
D03*
D95*
X622517Y209503D02*
D03*
Y214503D02*
D03*
Y204503D02*
D03*
Y189503D02*
D03*
Y184503D02*
D03*
Y199503D02*
D03*
Y194503D02*
D03*
Y179503D02*
D03*
Y164503D02*
D03*
Y159503D02*
D03*
Y174503D02*
D03*
Y169503D02*
D03*
X536017Y214503D02*
D03*
Y209503D02*
D03*
Y204503D02*
D03*
Y189503D02*
D03*
Y184503D02*
D03*
Y199503D02*
D03*
Y194503D02*
D03*
Y179503D02*
D03*
Y164503D02*
D03*
Y159503D02*
D03*
Y174503D02*
D03*
Y169503D02*
D03*
D96*
X601767Y230253D02*
D03*
X606767D02*
D03*
X591767D02*
D03*
X596767D02*
D03*
X581767D02*
D03*
X586767D02*
D03*
X576767D02*
D03*
X571767D02*
D03*
X581767Y143753D02*
D03*
X586767D02*
D03*
X571767D02*
D03*
X576767D02*
D03*
X601767D02*
D03*
X606767D02*
D03*
X591767D02*
D03*
X596767D02*
D03*
X561767Y230253D02*
D03*
X556767D02*
D03*
X566767D02*
D03*
X551767D02*
D03*
Y143753D02*
D03*
X556767D02*
D03*
X561767D02*
D03*
X566767D02*
D03*
D97*
X26250Y90500D02*
D03*
X11250D02*
D03*
X27500Y266000D02*
D03*
X12500D02*
D03*
X518500Y74000D02*
D03*
X503500D02*
D03*
D98*
X27750Y117000D02*
D03*
X11560D02*
D03*
X28000Y238000D02*
D03*
X11810D02*
D03*
D99*
X511000Y95500D02*
D03*
Y105500D02*
D03*
X511000Y110500D02*
D03*
X511000Y100500D02*
D03*
X463000D02*
D03*
Y105500D02*
D03*
Y95500D02*
D03*
Y115500D02*
D03*
Y110500D02*
D03*
X511000Y115500D02*
D03*
D100*
X249500Y228000D02*
D03*
Y128000D02*
D03*
X204500Y228000D02*
D03*
Y128000D02*
D03*
D101*
X358750Y199500D02*
D03*
X298250D02*
D03*
D102*
X706000Y133000D02*
D03*
Y116000D02*
D03*
X684000Y133000D02*
D03*
Y116000D02*
D03*
D103*
X237000Y108000D02*
X421020D01*
X232000Y113000D02*
Y143980D01*
X194500Y181500D02*
X200314Y175686D01*
X230164Y145836D01*
X232000Y113000D02*
X237000Y108000D01*
X230164Y145816D02*
X232000Y143980D01*
X234370Y101650D02*
X423650D01*
X230164Y145816D02*
Y145836D01*
X423650Y101650D02*
X437500Y115500D01*
X225650Y110370D02*
X234370Y101650D01*
X225650Y110370D02*
Y141350D01*
X437500Y115500D02*
X463000D01*
X421020Y108000D02*
X434870Y121850D01*
X447870D01*
X189705Y162500D02*
X194853D01*
X189705D02*
Y170059D01*
X180815D02*
X189705D01*
X180815Y161850D02*
Y170059D01*
X171925Y161850D02*
X180815D01*
X171925D02*
Y170059D01*
X163035D02*
X171925D01*
X163035Y162500D02*
Y170059D01*
X161129Y162500D02*
X163035D01*
X61480Y181500D02*
X64000D01*
X59630Y183350D02*
X61480Y181500D01*
X49174Y183350D02*
X59630D01*
X43150D02*
X49174D01*
X64000Y181500D02*
X71500D01*
X194853Y162500D02*
X204500D01*
X225650Y141350D01*
X471000Y122000D02*
X474825Y118175D01*
Y113825D02*
Y118175D01*
X471500Y110500D02*
X474825Y113825D01*
X94500Y162500D02*
X161129D01*
X139000Y181500D02*
X189000D01*
X194500D01*
X94500D02*
X139000D01*
X466914Y110500D02*
X471500D01*
X461000Y122000D02*
X471000D01*
X460850Y121850D02*
X461000Y122000D01*
X447870Y121850D02*
X460850D01*
X43000Y183500D02*
X43150Y183350D01*
X64297Y166095D02*
X64297D01*
X70016Y163984D02*
X71500Y162500D01*
X64297Y166095D02*
X66408Y163984D01*
X70016D01*
X43000Y177000D02*
X53392D01*
X62595Y167797D02*
Y167797D01*
X53392Y177000D02*
X62595Y167797D01*
Y167797D02*
X64297Y166095D01*
D104*
X717750Y211150D02*
X718650D01*
X579690Y127500D02*
X602600D01*
X607000Y123100D01*
X527400Y115500D02*
Y126650D01*
X528750Y128000D01*
X407500Y265000D02*
X408000Y265500D01*
X557500Y257500D02*
X585000D01*
X590000Y262500D01*
Y321200D02*
X603800Y335000D01*
X590000Y262500D02*
Y321200D01*
X698500Y235000D02*
X734750D01*
X648929D02*
X698500D01*
Y227750D02*
Y235000D01*
X738500Y212179D02*
Y231250D01*
X720550Y209250D02*
X735571D01*
X718650Y211150D02*
X720550Y209250D01*
X735571D02*
X738500Y212179D01*
X734750Y235000D02*
X738500Y231250D01*
X646000Y221100D02*
Y232071D01*
X648929Y235000D01*
X527400Y100500D02*
Y115500D01*
Y99500D02*
Y100500D01*
X108400Y286935D02*
Y302750D01*
X527500Y258000D02*
X528000Y257500D01*
X501500Y258000D02*
X527500D01*
X409500Y303500D02*
X410000Y303000D01*
X501500Y258000D02*
Y258000D01*
X494000Y265500D02*
X501500Y258000D01*
X173250Y262250D02*
Y265000D01*
X202750Y294500D02*
X202750D01*
X173500Y303500D02*
Y313350D01*
X173250Y265000D02*
X178750Y270500D01*
X178750D02*
X178750D01*
X163750Y240750D02*
Y281750D01*
X90631Y203500D02*
X154250D01*
X178750Y270500D02*
X202750Y294500D01*
X159350Y327500D02*
X173500Y313350D01*
D105*
X65000Y279625D02*
Y338000D01*
X72020Y345020D02*
X318230D01*
X65000Y338000D02*
X72020Y345020D01*
X51562Y266187D02*
X65000Y279625D01*
X39625Y266187D02*
X51562D01*
X27687D02*
X39625D01*
X43000Y190000D02*
X43000Y190000D01*
X50000D01*
X63500Y203500D01*
X27500Y266000D02*
X27687Y266187D01*
X318230Y345020D02*
X322750Y340500D01*
X387000Y305500D02*
X387500Y306000D01*
X322500Y333100D02*
X322550Y333050D01*
X322500Y333100D02*
X322750Y333350D01*
Y340500D01*
X341450Y333050D02*
X341500Y333000D01*
X384000D02*
X387500Y329500D01*
Y306000D02*
Y329500D01*
X322550Y333050D02*
X341450D01*
X341500Y333000D02*
X384000D01*
X63500Y203500D02*
X75109D01*
D106*
X80000Y172000D02*
X83000Y175000D01*
Y192000D02*
X90631Y199630D01*
X83000Y175000D02*
Y192000D01*
X71500Y172000D02*
X80000D01*
X706230Y68053D02*
X707980D01*
X695282Y79000D02*
X706230Y68053D01*
X571000Y79000D02*
X695282D01*
X566767Y83233D02*
X571000Y79000D01*
X566767Y83233D02*
Y143753D01*
X674681Y68053D02*
X676431D01*
X668734Y74000D02*
X674681Y68053D01*
X567000Y74000D02*
X668734D01*
X561767Y79233D02*
X567000Y74000D01*
X561767Y79233D02*
Y143753D01*
X717750Y205500D02*
Y209250D01*
X710250Y198000D02*
X717750Y205500D01*
X710250Y189500D02*
Y198000D01*
X644500Y219600D02*
X646000Y221100D01*
X536017Y174503D02*
X552497D01*
X552500Y174500D01*
X235981Y74000D02*
X504500D01*
X226522Y83459D02*
X235981Y74000D01*
X225272Y83459D02*
X226522D01*
X707980Y53053D02*
X708000Y53032D01*
Y29690D02*
Y53032D01*
X676431Y53053D02*
X676654Y52830D01*
Y30000D02*
Y52830D01*
X69210Y243577D02*
X72997Y239790D01*
X69210Y254268D02*
X76750Y261808D01*
X78500Y306000D02*
X81750Y302750D01*
X76750Y306000D02*
X78500D01*
X90631Y199630D02*
Y203500D01*
X133750Y248200D02*
X133800Y248250D01*
X132210Y236960D02*
X133750Y238500D01*
Y248200D01*
X133450Y303100D02*
X133800Y302750D01*
X133100Y321000D02*
X133450Y320650D01*
X152850Y321000D02*
X159350Y327500D01*
X173250Y303250D02*
X173500Y303500D01*
X69210Y243577D02*
Y254268D01*
X76750Y261808D02*
Y291000D01*
X133450Y303100D02*
Y320650D01*
X86460Y239790D02*
X89290Y236960D01*
X132210D01*
X81750Y302750D02*
X95700D01*
X133100Y321000D02*
X152850D01*
X72997Y239790D02*
X86460D01*
D107*
X408000Y265500D02*
X494000D01*
D108*
X564330Y13000D02*
D03*
D109*
X577030D02*
D03*
X589730D02*
D03*
X602430D02*
D03*
D110*
X705400Y335000D02*
D03*
X680000D02*
D03*
X654600D02*
D03*
X629200D02*
D03*
X228150Y294500D02*
D03*
D111*
X603800Y335000D02*
D03*
X202750Y294500D02*
D03*
D112*
X15000Y141250D02*
D03*
Y212750D02*
D03*
D113*
X795000Y30000D02*
D03*
Y320000D02*
D03*
X30000Y30000D02*
D03*
Y320000D02*
D03*
D114*
X210150Y327500D02*
D03*
X184750D02*
D03*
D115*
X159350D02*
D03*
D116*
X102500Y73500D02*
D03*
X152500D02*
D03*
D117*
X645500Y183356D02*
D03*
X654982Y161225D02*
D03*
X138000Y192000D02*
D03*
X123000D02*
D03*
X108000D02*
D03*
X818000Y122000D02*
D03*
X563000Y194000D02*
D03*
X599000Y204000D02*
D03*
X590000D02*
D03*
X808000Y281750D02*
D03*
X818000Y261750D02*
D03*
X808000Y241750D02*
D03*
Y161750D02*
D03*
X818000Y141750D02*
D03*
Y101750D02*
D03*
X808000Y81750D02*
D03*
X818000Y61750D02*
D03*
X788000Y281750D02*
D03*
X798000Y261750D02*
D03*
X788000Y241750D02*
D03*
Y201750D02*
D03*
Y121750D02*
D03*
X798000Y101750D02*
D03*
X788000Y81750D02*
D03*
X798000Y61750D02*
D03*
X768000Y281750D02*
D03*
X778000Y261750D02*
D03*
X768000Y241750D02*
D03*
X778000Y221750D02*
D03*
X768000Y201750D02*
D03*
X778000Y101750D02*
D03*
X768000Y81750D02*
D03*
X778000Y61750D02*
D03*
X748000Y321750D02*
D03*
X758000Y301750D02*
D03*
X748000Y281750D02*
D03*
X758000Y261750D02*
D03*
X748000Y241750D02*
D03*
X758000Y221750D02*
D03*
X748000Y201750D02*
D03*
X758000Y141750D02*
D03*
X748000Y121750D02*
D03*
X758000Y101750D02*
D03*
X748000Y81750D02*
D03*
X758000Y61750D02*
D03*
X748000Y41750D02*
D03*
X758000Y21750D02*
D03*
X728000Y321750D02*
D03*
X738000Y301750D02*
D03*
X728000Y281750D02*
D03*
X738000Y261750D02*
D03*
Y141750D02*
D03*
Y101750D02*
D03*
X728000Y81750D02*
D03*
X738000Y61750D02*
D03*
X728000Y41750D02*
D03*
X738000Y21750D02*
D03*
X708000Y321750D02*
D03*
X718000Y301750D02*
D03*
X708000Y281750D02*
D03*
X718000Y261750D02*
D03*
Y101750D02*
D03*
X708000Y81750D02*
D03*
X718000Y61750D02*
D03*
Y21750D02*
D03*
X688000Y321750D02*
D03*
X698000Y301750D02*
D03*
X688000Y281750D02*
D03*
X698000Y261750D02*
D03*
Y101750D02*
D03*
Y61750D02*
D03*
X688000Y41750D02*
D03*
X698000Y21750D02*
D03*
X668000Y321750D02*
D03*
X678000Y261750D02*
D03*
X668000Y201750D02*
D03*
X678000Y101750D02*
D03*
X668000Y41750D02*
D03*
X648000Y321750D02*
D03*
Y281750D02*
D03*
X658000Y261750D02*
D03*
Y141750D02*
D03*
X648000Y121750D02*
D03*
X658000Y101750D02*
D03*
Y61750D02*
D03*
X648000Y41750D02*
D03*
X658000Y21750D02*
D03*
X638000Y301750D02*
D03*
Y141750D02*
D03*
X628000Y121750D02*
D03*
X638000Y101750D02*
D03*
Y61750D02*
D03*
X628000Y41750D02*
D03*
X638000Y21750D02*
D03*
X608000Y321750D02*
D03*
X618000Y141750D02*
D03*
Y101750D02*
D03*
Y61750D02*
D03*
X608000Y41750D02*
D03*
X618000Y21750D02*
D03*
X598000Y301750D02*
D03*
Y261750D02*
D03*
X568000Y321750D02*
D03*
X578000Y301750D02*
D03*
X568000Y281750D02*
D03*
Y201750D02*
D03*
Y161750D02*
D03*
X578000Y101750D02*
D03*
Y61750D02*
D03*
X548000Y321750D02*
D03*
X558000Y301750D02*
D03*
X548000Y281750D02*
D03*
Y41750D02*
D03*
X528000Y321750D02*
D03*
X538000Y301750D02*
D03*
X528000Y281750D02*
D03*
Y81750D02*
D03*
X538000Y61750D02*
D03*
X528000Y41750D02*
D03*
X538000Y21750D02*
D03*
X508000Y321750D02*
D03*
X518000Y301750D02*
D03*
X508000Y281750D02*
D03*
Y241750D02*
D03*
X518000Y61750D02*
D03*
X508000Y41750D02*
D03*
X518000Y21750D02*
D03*
X488000Y321750D02*
D03*
X498000Y301750D02*
D03*
X488000Y281750D02*
D03*
Y241750D02*
D03*
Y81750D02*
D03*
Y41750D02*
D03*
X498000Y21750D02*
D03*
X468000Y321750D02*
D03*
X478000Y301750D02*
D03*
X468000Y281750D02*
D03*
X478000Y141750D02*
D03*
X468000Y41750D02*
D03*
X478000Y21750D02*
D03*
X448000Y321750D02*
D03*
X458000Y301750D02*
D03*
X448000Y281750D02*
D03*
Y241750D02*
D03*
X458000Y181750D02*
D03*
Y141750D02*
D03*
X448000Y41750D02*
D03*
X458000Y21750D02*
D03*
X428000Y321750D02*
D03*
X438000Y301750D02*
D03*
X428000Y281750D02*
D03*
Y241750D02*
D03*
Y201750D02*
D03*
Y161750D02*
D03*
X438000Y141750D02*
D03*
Y101750D02*
D03*
X428000Y81750D02*
D03*
Y41750D02*
D03*
X438000Y21750D02*
D03*
X418000Y301750D02*
D03*
X408000Y241750D02*
D03*
X418000Y221750D02*
D03*
X408000Y201750D02*
D03*
X418000Y181750D02*
D03*
X408000Y161750D02*
D03*
X418000Y141750D02*
D03*
X408000Y121750D02*
D03*
Y81750D02*
D03*
Y41750D02*
D03*
X418000Y21750D02*
D03*
X388000Y241750D02*
D03*
X398000Y221750D02*
D03*
X388000Y201750D02*
D03*
X398000Y181750D02*
D03*
X388000Y161750D02*
D03*
X398000Y141750D02*
D03*
X388000Y121750D02*
D03*
Y81750D02*
D03*
Y41750D02*
D03*
X398000Y21750D02*
D03*
X378000Y141750D02*
D03*
X368000Y121750D02*
D03*
Y81750D02*
D03*
Y41750D02*
D03*
X378000Y21750D02*
D03*
X358000Y141750D02*
D03*
X348000Y121750D02*
D03*
Y81750D02*
D03*
Y41750D02*
D03*
X358000Y21750D02*
D03*
X338000Y141750D02*
D03*
X328000Y121750D02*
D03*
Y81750D02*
D03*
Y41750D02*
D03*
X338000Y21750D02*
D03*
X318000Y141750D02*
D03*
X308000Y121750D02*
D03*
Y81750D02*
D03*
Y41750D02*
D03*
X318000Y21750D02*
D03*
X288000Y321750D02*
D03*
X298000Y141750D02*
D03*
X288000Y121750D02*
D03*
Y81750D02*
D03*
Y41750D02*
D03*
X298000Y21750D02*
D03*
X268000Y321750D02*
D03*
X278000Y301750D02*
D03*
X268000Y281750D02*
D03*
Y241750D02*
D03*
Y201750D02*
D03*
Y161750D02*
D03*
X278000Y141750D02*
D03*
X268000Y121750D02*
D03*
Y81750D02*
D03*
Y41750D02*
D03*
X278000Y21750D02*
D03*
X248000Y321750D02*
D03*
X258000Y301750D02*
D03*
X248000Y281750D02*
D03*
X258000Y181750D02*
D03*
X248000Y81750D02*
D03*
Y41750D02*
D03*
X258000Y21750D02*
D03*
X228000Y321750D02*
D03*
Y281750D02*
D03*
Y241750D02*
D03*
Y201750D02*
D03*
X238000Y181750D02*
D03*
X228000Y161750D02*
D03*
Y41750D02*
D03*
X238000Y21750D02*
D03*
X208000Y281750D02*
D03*
X218000Y221750D02*
D03*
X208000Y201750D02*
D03*
X218000Y181750D02*
D03*
Y101750D02*
D03*
X208000Y41750D02*
D03*
X218000Y21750D02*
D03*
X188000Y201750D02*
D03*
Y121750D02*
D03*
X198000Y101750D02*
D03*
X188000Y81750D02*
D03*
X198000Y61750D02*
D03*
X188000Y41750D02*
D03*
X198000Y21750D02*
D03*
X178000Y141750D02*
D03*
X168000Y121750D02*
D03*
X178000Y101750D02*
D03*
X168000Y81750D02*
D03*
X178000Y61750D02*
D03*
X168000Y41750D02*
D03*
X178000Y21750D02*
D03*
X158000Y141750D02*
D03*
X148000Y121750D02*
D03*
X158000Y101750D02*
D03*
X148000Y41750D02*
D03*
X158000Y21750D02*
D03*
X138000Y141750D02*
D03*
X128000Y121750D02*
D03*
X138000Y101750D02*
D03*
X128000Y81750D02*
D03*
X138000Y61750D02*
D03*
X128000Y41750D02*
D03*
X138000Y21750D02*
D03*
X108000Y321750D02*
D03*
X118000Y141750D02*
D03*
Y101750D02*
D03*
Y61750D02*
D03*
X108000Y41750D02*
D03*
X118000Y21750D02*
D03*
X88000Y321750D02*
D03*
Y281750D02*
D03*
X98000Y221750D02*
D03*
Y141750D02*
D03*
X88000Y121750D02*
D03*
Y81750D02*
D03*
Y41750D02*
D03*
X98000Y21750D02*
D03*
X78000Y221750D02*
D03*
X68000Y121750D02*
D03*
X78000Y101750D02*
D03*
Y61750D02*
D03*
X68000Y41750D02*
D03*
X78000Y21750D02*
D03*
X48000Y281750D02*
D03*
X58000Y261750D02*
D03*
X48000Y241750D02*
D03*
X58000Y221750D02*
D03*
X48000Y121750D02*
D03*
X58000Y101750D02*
D03*
X48000Y81750D02*
D03*
X28000Y281750D02*
D03*
X38000Y101750D02*
D03*
Y61750D02*
D03*
X8000Y281750D02*
D03*
X18000Y101750D02*
D03*
Y61750D02*
D03*
X528750Y128000D02*
D03*
X601734Y160715D02*
D03*
X579690Y127500D02*
D03*
X584003Y194997D02*
D03*
X575003D02*
D03*
X822000Y240000D02*
D03*
X804236Y223652D02*
D03*
X800007Y217410D02*
D03*
X798718Y209981D02*
D03*
Y202441D02*
D03*
Y194901D02*
D03*
X792420Y190756D02*
D03*
X784880D02*
D03*
X762269Y191206D02*
D03*
X754729D02*
D03*
X747191Y191049D02*
D03*
X739651Y191121D02*
D03*
X732112Y191206D02*
D03*
X724583Y190806D02*
D03*
X708000Y159000D02*
D03*
X712752Y154278D02*
D03*
X720005Y152219D02*
D03*
X727545D02*
D03*
X735084Y152094D02*
D03*
X764700Y154768D02*
D03*
X765957Y162203D02*
D03*
X748889Y171893D02*
D03*
X756427Y171697D02*
D03*
X763967Y171694D02*
D03*
X771505Y171844D02*
D03*
X774927Y165125D02*
D03*
Y157585D02*
D03*
X774712Y150048D02*
D03*
X772652Y142795D02*
D03*
X784134Y128248D02*
D03*
X795764Y142645D02*
D03*
X793847Y149937D02*
D03*
X793490Y157468D02*
D03*
Y165008D02*
D03*
X795925Y172144D02*
D03*
X803450Y172623D02*
D03*
X810251Y175878D02*
D03*
X815172Y181591D02*
D03*
X817230Y188845D02*
D03*
X817281Y196385D02*
D03*
Y203925D02*
D03*
X816302Y228281D02*
D03*
X679000Y149500D02*
D03*
X449397Y107465D02*
D03*
X653635Y181060D02*
D03*
X645750Y158500D02*
D03*
X637000Y224000D02*
D03*
X630000D02*
D03*
X39625Y266187D02*
D03*
X535000Y85000D02*
D03*
X545000D02*
D03*
X728000Y225500D02*
D03*
X552500Y174500D02*
D03*
X532500Y227250D02*
D03*
Y234250D02*
D03*
X539750D02*
D03*
X539769Y227080D02*
D03*
X510290Y174000D02*
D03*
X664000Y220500D02*
D03*
X699000Y209500D02*
D03*
X114000Y172000D02*
D03*
X106000D02*
D03*
X451000Y224500D02*
D03*
X664000Y210500D02*
D03*
X459000Y189500D02*
D03*
X467000D02*
D03*
X451000Y196500D02*
D03*
Y203500D02*
D03*
Y210500D02*
D03*
Y217500D02*
D03*
X458000Y224500D02*
D03*
X465000Y231500D02*
D03*
X479000D02*
D03*
X493000D02*
D03*
X507000D02*
D03*
X514000Y224500D02*
D03*
X507000D02*
D03*
X500000Y231500D02*
D03*
X486000D02*
D03*
X472000D02*
D03*
X465000Y224500D02*
D03*
X451000Y189500D02*
D03*
X125750Y281000D02*
D03*
X114750D02*
D03*
X125750Y270000D02*
D03*
X114750D02*
D03*
X103750D02*
D03*
Y281000D02*
D03*
X373250Y305500D02*
D03*
Y297500D02*
D03*
X728000Y217500D02*
D03*
X373250Y313500D02*
D03*
X328500Y288500D02*
D03*
Y281500D02*
D03*
Y304500D02*
D03*
Y297000D02*
D03*
D118*
X686250Y184500D02*
D03*
X696250D02*
D03*
Y174500D02*
D03*
X686250D02*
D03*
M02*
