G04*
G04 #@! TF.GenerationSoftware,Altium Limited,Altium Designer,20.2.4 (192)*
G04*
G04 Layer_Color=16711935*
%FSLAX44Y44*%
%MOMM*%
G71*
G04*
G04 #@! TF.SameCoordinates,B1776B65-D261-4C44-A5DE-40EC885F2A17*
G04*
G04*
G04 #@! TF.FilePolarity,Positive*
G04*
G01*
G75*
%ADD11C,0.2540*%
%ADD13C,0.2000*%
D11*
X825000Y337300D02*
X824756Y339778D01*
X824033Y342160D01*
X822860Y344356D01*
X821280Y346280D01*
X819356Y347860D01*
X817160Y349033D01*
X814778Y349756D01*
X812300Y350000D01*
X12700D02*
X10222Y349756D01*
X7840Y349033D01*
X5644Y347860D01*
X3720Y346280D01*
X2140Y344356D01*
X967Y342160D01*
X244Y339778D01*
X0Y337300D01*
Y12700D02*
X244Y10222D01*
X967Y7840D01*
X2140Y5644D01*
X3720Y3720D01*
X5644Y2140D01*
X7840Y967D01*
X10222Y244D01*
X12700Y0D01*
X811300D02*
X813778Y244D01*
X816160Y967D01*
X818356Y2140D01*
X820280Y3720D01*
X821860Y5644D01*
X823033Y7840D01*
X823756Y10222D01*
X824000Y12700D01*
X836700Y97499D02*
X834222Y97255D01*
X831840Y96532D01*
X829644Y95359D01*
X827720Y93779D01*
X826140Y91855D01*
X824967Y89659D01*
X824244Y87277D01*
X824000Y84799D01*
X825000Y262187D02*
X825244Y259710D01*
X825967Y257327D01*
X827140Y255131D01*
X828720Y253207D01*
X830644Y251628D01*
X832840Y250454D01*
X835222Y249731D01*
X837700Y249487D01*
X877190Y246417D02*
X876291Y248588D01*
X874120Y249487D01*
X874297Y97499D02*
X876343Y98346D01*
X877190Y100392D01*
X187500Y73500D02*
X187446Y76047D01*
X187284Y78588D01*
X187014Y81121D01*
X186637Y83640D01*
X186153Y86141D01*
X185564Y88619D01*
X184870Y91069D01*
X184073Y93488D01*
X183173Y95871D01*
X182174Y98214D01*
X181076Y100512D01*
X179881Y102762D01*
X178592Y104958D01*
X177211Y107099D01*
X175740Y109178D01*
X174182Y111193D01*
X172540Y113140D01*
X170817Y115016D01*
X169016Y116817D01*
X167141Y118540D01*
X165193Y120182D01*
X163178Y121740D01*
X161098Y123211D01*
X158959Y124592D01*
X156762Y125881D01*
X154512Y127076D01*
X152214Y128174D01*
X149871Y129173D01*
X147488Y130073D01*
X145069Y130870D01*
X142619Y131564D01*
X140141Y132153D01*
X137640Y132637D01*
X135121Y133014D01*
X132588Y133284D01*
X130047Y133446D01*
X127500Y133500D01*
X124953Y133446D01*
X122412Y133284D01*
X119879Y133014D01*
X117360Y132637D01*
X114859Y132153D01*
X112381Y131564D01*
X109931Y130870D01*
X107512Y130073D01*
X105129Y129173D01*
X102786Y128174D01*
X100488Y127076D01*
X98238Y125881D01*
X96041Y124592D01*
X93902Y123210D01*
X91822Y121740D01*
X89807Y120182D01*
X87859Y118540D01*
X85984Y116817D01*
X84183Y115016D01*
X82460Y113140D01*
X80818Y111193D01*
X79260Y109178D01*
X77789Y107098D01*
X76408Y104958D01*
X75119Y102762D01*
X73924Y100512D01*
X72826Y98214D01*
X71827Y95871D01*
X70927Y93488D01*
X70130Y91069D01*
X69436Y88619D01*
X68847Y86141D01*
X68363Y83640D01*
X67986Y81121D01*
X67716Y78588D01*
X67554Y76046D01*
X67500Y73500D01*
X67554Y70953D01*
X67716Y68411D01*
X67986Y65879D01*
X68363Y63360D01*
X68847Y60859D01*
X69436Y58381D01*
X70130Y55931D01*
X70927Y53512D01*
X71827Y51129D01*
X72826Y48786D01*
X73924Y46488D01*
X75119Y44238D01*
X76408Y42041D01*
X77790Y39901D01*
X79260Y37822D01*
X80818Y35807D01*
X82460Y33859D01*
X84183Y31984D01*
X85984Y30182D01*
X87860Y28460D01*
X89807Y26818D01*
X91822Y25260D01*
X93902Y23789D01*
X96042Y22408D01*
X98238Y21119D01*
X100488Y19924D01*
X102786Y18826D01*
X105129Y17827D01*
X107512Y16927D01*
X109931Y16130D01*
X112381Y15436D01*
X114859Y14847D01*
X117360Y14363D01*
X119879Y13986D01*
X122412Y13716D01*
X124954Y13554D01*
X127500Y13500D01*
X130047Y13554D01*
X132589Y13716D01*
X135121Y13986D01*
X137640Y14363D01*
X140141Y14847D01*
X142619Y15436D01*
X145070Y16130D01*
X147489Y16927D01*
X149872Y17827D01*
X152214Y18826D01*
X154512Y19924D01*
X156762Y21119D01*
X158959Y22408D01*
X161099Y23790D01*
X163178Y25260D01*
X165193Y26818D01*
X167141Y28460D01*
X169016Y30183D01*
X170818Y31984D01*
X172540Y33860D01*
X174182Y35807D01*
X175740Y37822D01*
X177211Y39902D01*
X178592Y42042D01*
X179881Y44239D01*
X181076Y46488D01*
X182174Y48786D01*
X183173Y51129D01*
X184073Y53512D01*
X184870Y55931D01*
X185564Y58382D01*
X186153Y60859D01*
X186637Y63360D01*
X187014Y65879D01*
X187284Y68412D01*
X187446Y70954D01*
X187500Y73500D01*
X824000Y29000D02*
Y84799D01*
Y12700D02*
Y29000D01*
X825000Y270000D02*
Y337300D01*
X12700Y350000D02*
X812300D01*
X0Y12700D02*
Y337300D01*
X12700Y0D02*
X811300D01*
X837700Y97499D02*
X874297D01*
X837700Y249487D02*
X874120D01*
X825000Y262187D02*
Y270000D01*
X877190Y100392D02*
Y246417D01*
X500Y140000D02*
Y214000D01*
Y140000D02*
X56000D01*
X500D02*
X56000Y214000D01*
X500D02*
X56000Y140000D01*
X500Y214000D02*
X56000D01*
Y140000D02*
Y214000D01*
X462500Y90500D02*
X511500D01*
Y120500D01*
X462500D02*
X511500D01*
X462500Y90500D02*
Y120500D01*
X257500Y128000D02*
Y228000D01*
X197500D02*
X257500D01*
X197500Y128000D02*
X257500D01*
X197500D02*
Y228000D01*
X159350Y342500D02*
X224350D01*
Y312500D02*
Y342500D01*
X144350D02*
X159350D01*
X144350Y312500D02*
X224350D01*
X144350D02*
Y342500D01*
D13*
X499500Y189500D02*
Y221500D01*
X474500Y189500D02*
X499500D01*
X474500Y221500D02*
X499500D01*
X474500Y189500D02*
Y221500D01*
X711000Y112000D02*
Y137000D01*
X679000Y112000D02*
Y137000D01*
X679000D02*
X711000D01*
X679000Y112000D02*
X711000D01*
M02*
